<svg width="97" height="96" viewBox="0 0 97 96" fill="none" xmlns="http://www.w3.org/2000/svg">
<path d="M93.1427 70.6006L78.7414 36.9746C73.8643 25.5666 64.8922 25.1066 58.8649 35.9626L50.1689 51.6486C45.7519 59.6066 37.516 60.2966 31.8107 53.1666L30.7985 51.8786C24.8631 44.4266 16.4892 45.3466 12.2102 53.8566L4.2964 69.7266C-1.27087 80.7666 6.78097 93.7846 19.1118 93.7846H77.8212C89.7839 93.7846 97.8358 81.5946 93.1427 70.6006ZM25.4612 29.3846C29.1221 29.3846 32.6329 27.9307 35.2215 25.3427C37.8101 22.7547 39.2644 19.2446 39.2644 15.5846C39.2644 11.9246 37.8101 8.41454 35.2215 5.82653C32.6329 3.23853 29.1221 1.78461 25.4612 1.78461C21.8004 1.78461 18.2895 3.23853 15.7009 5.82653C13.1123 8.41454 11.6581 11.9246 11.6581 15.5846C11.6581 19.2446 13.1123 22.7547 15.7009 25.3427C18.2895 27.9307 21.8004 29.3846 25.4612 29.3846Z" fill="#6D62D5" stroke="white" stroke-width="3" stroke-linecap="round" stroke-linejoin="round"/>
</svg>
