<svg width="360" height="800" viewBox="0 0 360 800" fill="none" xmlns="http://www.w3.org/2000/svg">
<g filter="url(#filter0_b_1_192)">
<g clip-path="url(#clip0_1_192)">
<rect width="360" height="800" rx="20" fill="#6D62D5"/>
<path d="M6.23939 491.841C16.71 489.825 23.6027 491.667 28.6883 495.42C33.9037 499.268 37.5235 505.336 40.9658 512.442C41.8983 514.367 42.821 516.378 43.7604 518.425C46.2065 523.757 48.7664 529.336 51.9094 534.293C56.3266 541.26 62.0896 547.358 70.8059 550.521C83.144 554.999 94.8988 552.397 105.481 550.056C106.59 549.81 107.686 549.568 108.768 549.337C120.375 546.857 130.52 545.591 140.36 553.471C150.034 561.219 151.893 570.797 152.647 581.961C152.766 583.726 152.857 585.538 152.948 587.387C153.431 597.103 153.966 607.852 159.052 618.383C163.644 627.891 170.686 635.142 178.41 641.272C183.932 645.654 189.922 649.547 195.644 653.266C197.868 654.711 200.052 656.13 202.152 657.542C209.766 662.66 216.343 667.709 220.651 673.798C224.881 679.776 226.982 686.842 225.441 696.219C222.824 712.151 211.986 719.053 198.376 725.538C196.537 726.414 194.644 727.282 192.719 728.165C180.594 733.727 167.187 739.876 157.846 752.321C149.633 763.261 146.61 774.59 143.801 785.116C143.474 786.342 143.15 787.558 142.82 788.76C139.651 800.335 136.01 810.889 125.324 820.018C112.105 831.313 98.4726 832.644 83.4796 832.526C81.1414 832.508 78.7641 832.453 76.3492 832.397C63.3615 832.097 49.2887 831.772 34.4037 836.993C21.546 841.504 11.8645 849.928 3.07097 857.58C1.06357 859.326 -0.897549 861.033 -2.83961 862.643C-13.3992 871.4 -23.5521 877.573 -38.4205 874.571C-48.1477 872.606 -53.8666 867.033 -59.8424 860.596C-60.2643 860.142 -60.6876 859.682 -61.114 859.22C-66.6809 853.183 -72.7608 846.589 -82.5674 842.854C-94.687 838.238 -106.152 840.81 -116.497 843.13C-117.414 843.336 -118.323 843.54 -119.223 843.736C-130.451 846.191 -140.347 847.602 -150.179 840.312C-157.538 834.855 -160.749 828.684 -161.625 821.905C-162.52 814.985 -161.006 807.261 -158.497 798.73C-157.371 794.903 -156.066 790.975 -154.718 786.923C-154.57 786.476 -154.421 786.028 -154.272 785.578C-152.773 781.065 -151.248 776.41 -149.921 771.672C-147.271 762.205 -145.376 752.277 -146.073 742.188C-147.243 725.271 -153.171 711.141 -158.645 698.092C-159.982 694.905 -161.292 691.783 -162.499 688.701C-168.678 672.92 -172.374 657.854 -164.772 639.058C-157.369 620.757 -139.672 615.832 -119.137 612.963C-115.681 612.48 -112.13 612.054 -108.558 611.625C-101.726 610.806 -94.813 609.976 -88.3249 608.72C-78.3835 606.797 -68.9663 603.804 -61.5513 598.016C-54.0786 592.183 -48.8377 582.864 -44.4686 572.425C-41.5816 565.526 -38.9916 557.913 -36.396 550.284C-35.0701 546.386 -33.7427 542.485 -32.3735 538.672C-28.2786 527.268 -23.7662 516.51 -17.6551 508.101C-11.5825 499.745 -4.01093 493.814 6.23939 491.841Z" stroke="white" stroke-width="4.46343"/>
<path d="M505.651 -22.0011C511.078 -16.3319 512.635 -11.404 512.352 -6.87696C512.059 -2.18887 509.784 2.44291 506.722 7.47862C505.905 8.8232 505.024 10.2048 504.125 11.6173C501.762 15.3262 499.264 19.2477 497.408 23.2689C494.793 28.9353 493.257 35.1591 494.843 42.0785C497.073 51.8112 503.594 58.2533 509.346 63.9362C509.951 64.5348 510.549 65.125 511.132 65.7097C517.388 71.9857 522.115 77.6753 521.185 86.7704C520.268 95.7425 515.174 100.669 508.501 105.645C507.454 106.426 506.362 107.21 505.244 108.014C499.338 112.255 492.697 117.025 488.081 124.597C483.913 131.434 482.2 138.89 481.479 146.274C480.964 151.547 480.948 156.93 480.933 162.04C480.927 164.017 480.921 165.952 480.887 167.825C480.761 174.677 480.256 180.764 478.221 185.836C476.236 190.781 472.757 194.854 466.382 197.629C455.592 202.326 447.085 198.464 437.515 192.559C436.23 191.767 434.925 190.935 433.595 190.087C425.192 184.73 415.761 178.717 404.003 177.886C393.687 177.158 385.244 179.888 377.5 182.392C376.597 182.684 375.703 182.973 374.817 183.253C366.286 185.949 358.32 187.897 348.424 184.94C336.169 181.278 329.899 173.402 323.914 163.972C322.984 162.508 322.06 161.001 321.119 159.467C316.041 151.188 310.48 142.12 301.076 134.822C292.936 128.504 283.591 125.805 275.215 123.386C273.315 122.837 271.464 122.302 269.689 121.743C259.953 118.677 252.172 114.877 248.125 104.568C245.484 97.8408 246.619 92.143 248.235 85.7928C248.35 85.3408 248.468 84.885 248.586 84.4251C250.118 78.4913 251.826 71.8785 250.166 64.0709C248.112 54.4144 241.727 48.1417 236.087 42.6007C235.582 42.1044 235.082 41.614 234.593 41.1275C228.502 35.0757 223.781 29.5943 224.354 20.7348C224.787 14.0474 227.293 9.67272 231.073 6.47589C234.962 3.18747 240.331 1.0319 246.692 -0.847729C249.541 -1.68979 252.527 -2.46002 255.619 -3.25779C255.96 -3.34564 256.302 -3.43382 256.645 -3.52247C260.087 -4.41181 263.641 -5.34448 267.168 -6.43712C274.215 -8.62026 281.287 -11.4796 287.415 -16.0646C297.647 -23.7213 304.18 -33.2694 310.157 -42.0055C311.61 -44.1288 313.03 -46.2041 314.462 -48.1926C321.834 -58.4272 329.687 -66.7192 344.364 -69.5273C358.517 -72.2351 368.589 -63.3764 378.725 -51.6369C380.414 -49.6808 382.114 -47.6334 383.828 -45.5682C387.123 -41.5995 390.472 -37.5652 393.904 -33.9865C399.166 -28.5007 404.939 -23.7249 411.706 -21.3721C418.542 -18.9952 426.639 -19.5065 434.988 -21.0002C440.509 -21.9879 446.375 -23.4573 452.231 -24.9244C455.211 -25.671 458.189 -26.4171 461.118 -27.0987C469.933 -29.15 478.452 -30.662 486.126 -30.2392C493.734 -29.8199 500.379 -27.5083 505.651 -22.0011Z" stroke="white" stroke-width="4.46343"/>
<g filter="url(#filter1_b_1_192)">
<rect width="360" height="800" fill="#2B2B2B" fill-opacity="0.1"/>
<rect x="0.5" y="0.5" width="359" height="799" stroke="black" stroke-opacity="0.01"/>
</g>
</g>
</g>
<defs>
<filter id="filter0_b_1_192" x="-5.6" y="-5.6" width="371.2" height="811.2" filterUnits="userSpaceOnUse" color-interpolation-filters="sRGB">
<feFlood flood-opacity="0" result="BackgroundImageFix"/>
<feGaussianBlur in="BackgroundImageFix" stdDeviation="2.8"/>
<feComposite in2="SourceAlpha" operator="in" result="effect1_backgroundBlur_1_192"/>
<feBlend mode="normal" in="SourceGraphic" in2="effect1_backgroundBlur_1_192" result="shape"/>
</filter>
<filter id="filter1_b_1_192" x="-4.8" y="-4.8" width="369.6" height="809.6" filterUnits="userSpaceOnUse" color-interpolation-filters="sRGB">
<feFlood flood-opacity="0" result="BackgroundImageFix"/>
<feGaussianBlur in="BackgroundImageFix" stdDeviation="2.4"/>
<feComposite in2="SourceAlpha" operator="in" result="effect1_backgroundBlur_1_192"/>
<feBlend mode="normal" in="SourceGraphic" in2="effect1_backgroundBlur_1_192" result="shape"/>
</filter>
<clipPath id="clip0_1_192">
<rect width="360" height="800" rx="20" fill="white"/>
</clipPath>
</defs>
</svg>
