<svg width="360" height="800" viewBox="0 0 360 800" fill="none" xmlns="http://www.w3.org/2000/svg">
<g clip-path="url(#clip0_240_5102)">
<rect width="360" height="800" rx="20" fill="white"/>
<path d="M141.875 15.9826C149.278 -2.31836 166.975 -7.24319 187.51 -10.1125C190.966 -10.5954 194.517 -11.0214 198.089 -11.4501C204.921 -12.27 211.834 -13.0995 218.322 -14.355C228.263 -16.2787 237.681 -19.2716 245.096 -25.0593C252.568 -30.8921 257.809 -40.2112 262.178 -50.6508C265.065 -57.5491 267.655 -65.1621 270.251 -72.7917C271.577 -76.6891 272.904 -80.5909 274.273 -84.4039C278.368 -95.8078 282.881 -106.565 288.992 -114.974C295.065 -123.33 302.636 -129.261 312.886 -131.235C323.357 -133.25 330.25 -131.409 335.335 -127.656C340.551 -123.807 344.171 -117.74 347.613 -110.633C348.545 -108.708 349.468 -106.697 350.407 -104.65C352.854 -99.3188 355.413 -93.7397 358.556 -88.7825C362.974 -81.8155 368.737 -75.7174 377.453 -72.5543C389.791 -68.0769 401.546 -70.678 412.128 -73.0197C413.237 -73.265 414.333 -73.5075 415.415 -73.7387C427.022 -76.218 437.167 -77.4842 447.007 -69.604C456.681 -61.8568 458.54 -52.279 459.294 -41.1149C459.414 -39.3492 459.504 -37.5373 459.595 -35.688C460.078 -25.9727 460.613 -15.2235 465.699 -4.69198C470.291 4.81525 477.333 12.067 485.057 18.1964C490.579 22.5781 496.569 26.4713 502.291 30.1901C504.515 31.6357 506.699 33.0549 508.799 34.4663C516.413 39.5843 522.99 44.6334 527.298 50.7226C531.528 56.7005 533.629 63.7664 532.088 73.1435C529.471 89.0751 518.633 95.9777 505.023 102.462C503.184 103.339 501.291 104.207 499.366 105.089C487.241 110.651 473.834 116.801 464.493 129.245C456.28 140.185 453.257 151.514 450.448 162.04C450.121 163.267 449.797 164.482 449.467 165.685C446.298 177.259 442.657 187.814 431.972 196.943C418.752 208.237 405.12 209.568 390.127 209.451C387.788 209.433 385.411 209.378 382.996 209.322C370.009 209.022 355.936 208.696 341.051 213.918C328.193 218.428 318.512 226.852 309.718 234.504C307.711 236.251 305.749 237.957 303.807 239.568C293.248 248.324 283.095 254.498 268.227 251.495C258.499 249.531 252.78 243.957 246.805 237.52C246.383 237.066 245.959 236.607 245.533 236.145C239.966 230.107 233.886 223.513 224.08 219.779C211.96 215.163 200.495 217.734 190.15 220.055C189.233 220.26 188.324 220.464 187.424 220.661C176.196 223.115 166.3 224.527 156.468 217.237C149.109 211.78 145.898 205.608 145.022 198.829C144.127 191.91 145.641 184.185 148.15 175.654C149.276 171.827 150.581 167.9 151.929 163.847C152.077 163.401 152.226 162.953 152.375 162.503C153.874 157.989 155.399 153.334 156.726 148.597C159.377 139.129 161.271 129.202 160.574 119.113C159.404 102.195 153.476 88.0659 148.002 75.0165C146.665 71.8299 145.355 68.7078 144.148 65.6251C137.969 49.8445 134.273 34.7782 141.875 15.9826Z" stroke="#6D62D5" stroke-width="4.46343"/>
<g filter="url(#filter0_b_240_5102)">
<rect width="360" height="800" fill="#E7E7E7" fill-opacity="0.1"/>
<rect x="0.5" y="0.5" width="359" height="799" stroke="black" stroke-opacity="0.01"/>
</g>
</g>
<defs>
<filter id="filter0_b_240_5102" x="-4.8" y="-4.8" width="369.6" height="809.6" filterUnits="userSpaceOnUse" color-interpolation-filters="sRGB">
<feFlood flood-opacity="0" result="BackgroundImageFix"/>
<feGaussianBlur in="BackgroundImageFix" stdDeviation="2.4"/>
<feComposite in2="SourceAlpha" operator="in" result="effect1_backgroundBlur_240_5102"/>
<feBlend mode="normal" in="SourceGraphic" in2="effect1_backgroundBlur_240_5102" result="shape"/>
</filter>
<clipPath id="clip0_240_5102">
<rect width="360" height="800" rx="20" fill="white"/>
</clipPath>
</defs>
</svg>
