<svg width="335" height="315" viewBox="0 0 335 315" fill="none" xmlns="http://www.w3.org/2000/svg">
<path d="M-27.6314 333.795C-35.1782 328.108 -38.0629 322.483 -38.6175 316.909C-39.1862 311.194 -37.3482 305.209 -34.7216 298.723C-34.01 296.966 -33.2363 295.165 -32.4485 293.331C-30.397 288.555 -28.2502 283.557 -26.8587 278.545C-24.903 271.501 -24.3182 264.089 -27.4179 256.479C-31.8055 245.707 -40.5001 239.525 -48.3276 233.959C-49.1477 233.376 -49.9584 232.799 -50.7535 232.225C-59.2798 226.068 -66.1407 220.15 -66.8068 208.999C-67.4616 198.035 -62.2696 191.122 -55.378 183.993C-54.2879 182.865 -53.1503 181.729 -51.9891 180.57C-45.8889 174.48 -39.1395 167.741 -35.238 158.14C-31.7159 149.472 -31.1331 140.533 -31.693 131.813C-32.0933 125.579 -33.093 119.328 -34.0479 113.356C-34.4191 111.035 -34.7835 108.756 -35.1034 106.537C-36.2632 98.49 -36.8517 91.1659 -35.4084 84.7155C-33.9915 78.3828 -30.5943 72.8032 -23.5142 68.2441C-11.4852 60.4983 -0.507465 63.5219 11.8432 68.617C13.5118 69.3053 15.2069 70.0337 16.931 70.7745C27.7926 75.4415 39.8014 80.6015 53.5336 79.3485C65.6059 78.247 74.8502 73.5031 83.4396 69.0952C84.4403 68.5817 85.432 68.0727 86.4184 67.5746C95.9107 62.7808 105.013 58.9032 117.364 60.5037C132.644 62.4839 141.62 70.6552 150.451 80.5818C151.829 82.1298 153.205 83.7255 154.603 85.3463C162.123 94.0632 170.271 103.508 182.548 110.192C193.154 115.965 204.445 117.324 214.7 118.559C217.041 118.841 219.328 119.116 221.541 119.436C233.572 121.175 243.664 124.181 250.525 135.741C255.013 143.303 254.747 150.374 254.066 158.128C254.018 158.675 253.967 159.226 253.917 159.781C253.255 167.029 252.533 174.944 255.905 183.61C260.072 194.32 268.574 200.33 276.246 205.752C276.927 206.233 277.601 206.71 278.265 207.184C286.55 213.108 293.358 218.775 294.408 229.571C295.193 237.651 293.044 243.429 289.107 248.033C285.09 252.733 279.112 256.327 272.012 259.747C268.828 261.281 265.47 262.756 262.006 264.278C261.624 264.446 261.24 264.614 260.856 264.784C256.998 266.48 253.031 268.243 249.129 270.186C241.329 274.069 233.677 278.722 227.458 285.176C217.031 295.997 211.264 308.289 205.938 319.643C204.638 322.415 203.363 325.131 202.054 327.757C195.35 341.195 187.641 352.578 170.767 358.748C154.337 364.755 140.584 356.047 126.496 344.251C124.125 342.266 121.735 340.185 119.331 338.091C114.732 334.087 110.079 330.035 105.398 326.515C98.2267 321.123 90.6634 316.71 82.4525 315.274C74.1776 313.827 64.9368 315.919 55.4774 319.249C49.2268 321.45 42.6829 324.271 36.1247 327.098C32.7745 328.542 29.4206 329.988 26.1001 331.354C16.1696 335.437 6.41629 338.863 -2.74329 339.842C-11.845 340.814 -20.2435 339.361 -27.6314 333.795Z" fill="white" stroke="#ECEBFA" stroke-width="3.95532"/>
<g clip-path="url(#clip0_737_5369)">
<path d="M88.9109 285.58L116.798 272.848L122.195 284.673C122.195 284.673 113.888 289.154 108.39 291.66C102.985 294.123 94.308 297.405 94.308 297.405L88.9109 285.58Z" fill="#6D62D5"/>
<path d="M94.0331 296.803C94.0331 296.803 102.848 293.634 108.3 291.145C113.752 288.656 121.92 284.071 121.92 284.071C121.92 284.071 148.184 286.498 150.532 287.706C152.88 288.914 153.004 289.91 153.004 289.91C153.004 289.91 137.785 298.134 127.71 302.731C117.691 307.302 101.598 313.379 101.598 313.379L94.0331 296.803Z" fill="#FF4A97"/>
<path d="M128.409 291.051L128.877 282.671" stroke="#330043" stroke-width="0.853463" stroke-linecap="round"/>
<path d="M125.681 284.252L121.77 272.514" stroke="#330043" stroke-width="0.853463" stroke-linecap="round"/>
<path d="M131.393 291.042L131.861 282.662" stroke="#330043" stroke-width="0.853463" stroke-linecap="round"/>
<path d="M134.378 291.042L134.846 282.662" stroke="#330043" stroke-width="0.853463" stroke-linecap="round"/>
<path d="M125.773 284.543C125.773 284.543 122.499 263.559 125.924 268.525C128.37 272.07 125.773 284.543 125.773 284.543" stroke="#330043" stroke-width="0.853463" stroke-linecap="round"/>
<path d="M138.63 286.034C138.63 286.034 138.548 286.697 139.378 290.633C140.208 294.568 141.742 295.613 141.742 295.613" stroke="#6D62D5" stroke-width="0.853463" stroke-linecap="square"/>
<path d="M102.698 315.789C102.698 315.789 118.883 309.805 128.931 305.217C138.979 300.63 154.103 292.32 154.103 292.32L152.762 289.381C152.762 289.381 137.638 297.692 127.59 302.279C117.542 306.866 101.357 312.851 101.357 312.851L102.698 315.789Z" fill="#FF4A97"/>
<path d="M92.9298 293.406C92.9298 293.406 101.525 290.355 106.833 287.932C112.142 285.508 120.077 281.012 120.077 281.012" stroke="#330043" stroke-width="0.853463" stroke-linecap="round"/>
<path d="M101.449 312.565C101.449 312.565 116.966 307.633 125.537 303.72C134.108 299.807 152.809 289.962 152.809 289.962" stroke="#6D62D5" stroke-width="0.853463" stroke-linecap="square"/>
<path d="M91.0833 289.36C91.0833 289.36 99.6786 286.309 104.987 283.886C110.295 281.462 118.231 276.966 118.231 276.966" stroke="#330043" stroke-width="0.853463" stroke-linecap="round"/>
<path d="M96.4169 301.533C96.4169 301.533 101.515 298.232 107.263 300.616C113.01 303 114.117 308.025 114.117 308.025" stroke="#6D62D5" stroke-width="0.853463" stroke-linecap="square"/>
<path d="M12.8563 261.454L29.1169 287.446L18.0987 294.342C18.0987 294.342 12.5728 286.689 9.37152 281.564C6.22447 276.526 1.83801 268.35 1.83801 268.35L12.8563 261.454Z" fill="#6D62D5"/>
<path d="M2.39969 267.998C2.39969 267.998 6.69082 276.326 9.87007 281.408C13.0493 286.489 18.6604 293.99 18.6604 293.99C18.6604 293.99 19.6824 320.351 18.7913 322.837C17.9002 325.323 16.9294 325.576 16.9294 325.576C16.9294 325.576 6.79039 311.558 0.918759 302.167C-4.92067 292.828 -13.0444 277.664 -13.0444 277.664L2.39969 267.998Z" fill="#FF4A97"/>
<path d="M12.5881 301.336L20.9555 300.706" stroke="#330043" stroke-width="0.853463" stroke-linecap="round"/>
<path d="M18.9719 297.744L30.0965 292.333" stroke="#330043" stroke-width="0.853463" stroke-linecap="round"/>
<path d="M12.9868 304.294L21.3542 303.665" stroke="#330043" stroke-width="0.853463" stroke-linecap="round"/>
<path d="M13.3762 307.254L21.7436 306.624" stroke="#330043" stroke-width="0.853463" stroke-linecap="round"/>
<path d="M18.6957 297.873C18.6957 297.873 39.0682 291.887 34.5936 295.931C31.3983 298.82 18.6957 297.873 18.6957 297.873Z" stroke="#330043" stroke-width="0.853463" stroke-linecap="round"/>
<path d="M18.8949 310.816C18.8949 310.816 18.2267 310.822 14.4339 312.158C10.6411 313.495 9.80591 315.153 9.80591 315.153" stroke="#6D62D5" stroke-width="0.853463" stroke-linecap="square"/>
<path d="M-15.2902 279.069C-15.2902 279.069 -7.24522 294.338 -1.38672 303.703C4.4722 313.068 14.6837 326.981 14.6837 326.981L17.4214 325.268C17.4214 325.268 7.20992 311.355 1.351 301.99C-4.50749 292.624 -12.5524 277.356 -12.5524 277.356L-15.2902 279.069Z" fill="#FF4A97"/>
<path d="M5.62256 266.461C5.62256 266.461 9.76876 274.586 12.8641 279.534C15.959 284.482 21.4519 291.763 21.4519 291.763" stroke="#330043" stroke-width="0.853463" stroke-linecap="round"/>
<path d="M-12.257 277.41C-12.257 277.41 -5.34253 292.153 -0.345048 300.141C4.65243 308.13 16.8525 325.389 16.8525 325.389" stroke="#6D62D5" stroke-width="0.853463" stroke-linecap="square"/>
<path d="M9.39197 264.102C9.39197 264.102 13.5377 272.227 16.6331 277.175C19.7284 282.122 25.2213 289.404 25.2213 289.404" stroke="#330043" stroke-width="0.853463" stroke-linecap="round"/>
<path d="M-1.97813 270.981C-1.97813 270.981 1.9596 275.606 0.346455 281.616C-1.26626 287.627 -6.10315 289.38 -6.10315 289.38" stroke="#6D62D5" stroke-width="0.853463" stroke-linecap="square"/>
<path d="M72.652 81.0433C77.1969 81.143 80.0139 82.5403 81.8906 84.6676C83.7783 86.8076 84.7406 89.7135 85.5139 92.8881C85.7304 93.7756 85.9317 94.6851 86.1351 95.6028C86.6546 97.9481 87.1864 100.347 88.0054 102.572C89.1499 105.679 90.8677 108.486 93.933 110.409C98.3385 113.173 103.099 113.149 107.589 113.126C108.053 113.123 108.515 113.121 108.972 113.122C113.878 113.13 118.38 113.487 121.879 117.785C125.295 121.981 125.178 126.256 124.506 130.87C124.398 131.613 124.275 132.365 124.15 133.128C123.504 137.086 122.814 141.309 123.914 145.847C124.906 149.941 127.048 153.383 129.593 156.48C131.416 158.699 133.456 160.752 135.431 162.74C136.208 163.521 136.974 164.292 137.714 165.059C140.343 167.789 142.635 170.472 143.896 173.426C145.152 176.367 145.39 179.585 143.888 183.403C141.316 189.94 136.031 191.85 129.953 193.29C129.12 193.487 128.271 193.676 127.413 193.866C122.035 195.06 116.288 196.336 111.585 200.418C107.432 204.023 105.289 208.209 103.239 212.215C103.001 212.68 102.764 213.142 102.526 213.601C100.23 218.019 97.7669 222.116 92.4771 224.972C85.9452 228.498 80.1291 227.807 74.049 226.447C73.091 226.233 72.1261 226.002 71.1507 225.769C65.9422 224.522 60.4345 223.203 54.1171 223.999C48.6875 224.683 44.1946 227.159 39.9912 229.475C39.0188 230.011 38.0616 230.539 37.1116 231.034C32.0446 233.674 27.17 235.404 21.1424 232.773C17.178 231.044 15.2628 228.128 13.4047 225.001C13.2763 224.785 13.1479 224.568 13.0195 224.35C11.2916 221.421 9.48943 218.367 6.00171 216.102C1.69957 213.307 -2.94028 213.344 -7.33606 213.379C-7.71657 213.382 -8.09538 213.385 -8.47166 213.386C-13.2174 213.401 -17.6213 213.127 -21.1709 209.084C-23.7823 206.111 -24.6069 203.161 -24.3556 200.159C-24.1026 197.142 -22.7624 194.054 -21.0018 190.816C-20.2098 189.36 -19.3361 187.879 -18.4425 186.364C-18.3437 186.197 -18.2446 186.029 -18.1454 185.861C-17.1497 184.171 -16.1382 182.44 -15.2009 180.661C-13.3268 177.105 -11.742 173.348 -11.1636 169.332C-10.1844 162.535 -11.32 156.463 -12.3912 150.735C-12.6556 149.322 -12.9157 147.93 -13.1395 146.553C-14.2713 139.588 -14.4785 132.979 -9.63692 125.846C-4.8263 118.76 3.12669 118.363 11.6411 118.988C13.1055 119.096 14.5878 119.234 16.0712 119.372C18.8793 119.633 21.6908 119.895 24.392 119.951C28.5272 120.038 32.4531 119.648 35.7984 118.029C39.1506 116.407 41.9879 113.229 44.64 109.421C46.3896 106.91 48.0718 104.102 49.7718 101.266C50.6476 99.8044 51.5282 98.3352 52.4248 96.8944C55.0701 92.6446 57.865 88.6282 61.1358 85.6994C64.4011 82.7752 68.1299 80.9441 72.652 81.0433Z" fill="#330043" stroke="#330043" stroke-width="0.853463"/>
<path d="M-15.3056 168.685C-12.7467 150.856 -23.9925 137.826 -13.6675 122.588C-3.34245 107.349 20.4839 120.995 34.4047 114.25C41.9637 110.588 47.0942 99.2373 53.3124 89.6971M127.806 143.864C125.061 132.53 132.953 123.128 125.6 114.084C118.054 104.802 106.151 112.584 96.0283 106.221C91.1579 103.16 89.5524 97.939 88.3304 92.639" stroke="#330043" stroke-width="0.853463"/>
<path d="M89.5356 139.318C90.1932 143.112 87.7763 146.7 84.1368 147.331L80.5072 147.961L80.4741 135.827C80.4741 135.827 82.3165 134.644 83.9589 134.359C87.5983 133.728 88.8775 135.524 89.5356 139.318Z" fill="#F47155"/>
<path d="M54.5676 168.274H59.8206L61.0053 178.016H54.1489L54.5676 168.274Z" fill="#F47155"/>
<path d="M60.0793 169.164L54.6064 169.707C54.6064 169.707 59.3921 173.549 60.0793 171.555C60.6162 169.997 60.0793 169.164 60.0793 169.164Z" fill="#330043" stroke="#330043" stroke-width="0.853463" stroke-linecap="round" stroke-linejoin="round"/>
<path d="M20.6187 153.045C21.4399 157.782 25.7891 160.983 30.3323 160.195L34.8641 159.409L29.8035 145.131C29.8035 145.131 27.1408 144.516 25.0903 144.871C20.5467 145.659 19.7975 148.308 20.6187 153.045Z" fill="#F47155"/>
<path d="M82.7895 141.328C85.0196 154.191 75.0598 166.659 60.5437 169.177C46.0275 171.695 32.452 163.308 30.222 150.446C29.358 145.461 29.4156 145.126 29.4156 145.126C29.4156 145.126 41.9161 141.569 47.439 136.254C52.9572 130.943 54.4614 117.941 54.4614 117.941C54.4614 117.941 60.3594 126.948 65.9793 130.525C71.4535 134.01 81.7984 135.61 81.7984 135.61C81.7984 135.61 81.9255 136.343 82.7895 141.328Z" fill="#F47155"/>
<path d="M50.8391 143.208C51.3011 143.128 51.6107 142.688 51.5306 142.226C51.4505 141.764 51.011 141.454 50.5489 141.535C50.0868 141.615 49.7772 142.054 49.8574 142.516C49.9375 142.979 50.377 143.288 50.8391 143.208Z" fill="#330043"/>
<path d="M69.0089 140.314C69.4709 140.234 69.7805 139.794 69.7004 139.332C69.6203 138.87 69.1808 138.56 68.7187 138.64C68.2566 138.721 67.947 139.16 68.0272 139.622C68.1073 140.084 68.5468 140.394 69.0089 140.314Z" fill="#330043"/>
<path d="M60.5268 138.737C60.5268 138.737 60.4136 140.969 60.6895 142.357C60.9352 143.594 61.7395 145.412 61.7395 145.412" stroke="#330043" stroke-width="0.798428" stroke-linecap="round"/>
<path d="M71.1029 152.769C71.1029 156.846 62.0554 161.17 57.9791 161.17C53.9032 161.17 48.6617 157.634 48.6617 153.557C48.6617 149.48 56.0032 150.538 60.0791 150.538C64.1554 150.538 71.1029 148.693 71.1029 152.769Z" fill="#330043"/>
<path d="M65.2457 158.639C65.2457 158.639 61.1457 160.763 58.0186 160.879C53.9427 160.879 51.1935 158.091 51.1935 158.091C51.6423 155.846 55.3953 154.937 58.3448 155.386C61.8436 155.918 63.4885 156.778 65.2457 158.639Z" fill="#FF4A97"/>
<path d="M30.6967 104.733C34.6134 104.054 37.238 100.328 36.5588 96.4101C35.8796 92.4926 32.1539 89.8676 28.2371 90.5469C24.3203 91.2262 21.6957 94.9526 22.3749 98.8701C23.0541 102.788 26.7799 105.413 30.6967 104.733Z" fill="#330043" stroke="#330043" stroke-width="0.853463"/>
<path d="M140.775 141.523C144.692 140.844 147.316 137.117 146.637 133.2C145.958 129.283 142.232 126.658 138.315 127.337C134.399 128.016 131.774 131.743 132.453 135.66C133.132 139.577 136.858 142.203 140.775 141.523Z" fill="#330043" stroke="#330043" stroke-width="0.853463"/>
<path d="M30.5964 156.448C30.5964 156.448 32.6439 161.711 32.9206 164.239C33.3587 168.24 32.2651 171.643 30.4782 171.839C28.6909 172.034 26.8875 168.949 26.4494 164.947C26.2596 163.213 26.6744 160.295 26.6744 160.295" stroke="#FFCD34" stroke-width="0.853463" stroke-linecap="round"/>
<path d="M84.9888 144.727C84.9888 144.727 83.8833 150.264 84.0486 152.802C84.3104 156.819 85.977 159.981 87.7706 159.864C89.5647 159.747 89.8092 156.819 89.5478 152.802C89.3249 149.384 87.7706 146.467 87.7706 146.467" stroke="#FFCD34" stroke-width="0.853463" stroke-linecap="round"/>
<path d="M84.3964 140.433C84.3964 140.433 83.3689 142.418 83.0447 143.795" stroke="#330043" stroke-width="0.853463" stroke-linecap="round"/>
<path d="M25.4222 149.399C25.4222 149.399 26.7189 151.218 27.2333 152.536C27.6917 153.712 27.9926 155.677 27.9926 155.677" stroke="#330043" stroke-width="0.853463" stroke-linecap="round"/>
<path d="M82.7894 141.336C85.0195 154.199 75.0597 166.667 60.5435 169.185C46.0274 171.703 32.4519 163.316 30.2218 150.453" stroke="#330043" stroke-width="0.853463" stroke-linecap="round"/>
<path d="M58.2943 230.667L93.0999 216.081L118.692 272.549C118.63 272.586 118.553 272.631 118.462 272.685C118.199 272.841 117.815 273.068 117.335 273.348C116.375 273.908 115.03 274.684 113.488 275.545C110.403 277.27 106.54 279.333 103.411 280.705C99.891 282.248 95.2224 283.824 91.4283 285.015C89.5321 285.611 87.8571 286.11 86.6554 286.46C86.0549 286.635 85.5727 286.773 85.241 286.867C85.0969 286.907 84.9812 286.94 84.896 286.964C84.8918 286.956 84.8872 286.949 84.8825 286.941C84.8134 286.828 84.7113 286.66 84.5795 286.444C84.3164 286.01 83.9346 285.379 83.4609 284.591C82.513 283.013 81.1965 280.805 79.7227 278.279C76.774 273.226 73.1969 266.908 70.6761 261.837C67.7142 255.879 64.6019 248.037 62.2286 241.68C61.0421 238.503 60.0413 235.698 59.337 233.688C58.9849 232.683 58.707 231.876 58.5171 231.321C58.4222 231.043 58.3489 230.829 58.2998 230.684C58.2981 230.678 58.2959 230.673 58.2943 230.667Z" fill="#9854CB" stroke="#9854CB" stroke-width="0.853463" stroke-linecap="round" stroke-linejoin="round"/>
<path d="M80.6973 280.423C80.6973 280.423 91.0587 279.671 101.191 274.424C111.322 269.177 116.337 264.968 116.337 264.968" stroke="#DDC7F8" stroke-width="0.853463" stroke-linecap="round" stroke-linejoin="round"/>
<path d="M66.702 240.096L65.0635 251.236C65.0635 251.236 68.8902 248.007 69.7118 245.624C70.3537 243.762 71.6563 239.207 71.6563 239.207L66.702 240.096Z" fill="#330043" stroke="#330043" stroke-width="0.853463" stroke-linecap="round" stroke-linejoin="round"/>
<path d="M67.1121 240.403C67.1121 240.403 72.4799 255.34 77.5981 264.002C82.7159 272.665 88.3592 279.096 88.3592 279.096" stroke="#DDC7F8" stroke-width="0.853463" stroke-linecap="round" stroke-linejoin="round"/>
<path d="M33.1939 225.063L71.8979 225.062C71.8949 225.081 71.8915 225.102 71.8881 225.122C71.8534 225.338 71.8008 225.656 71.7305 226.066C71.5902 226.887 71.3788 228.076 71.0953 229.55C70.5292 232.497 69.675 236.582 68.5241 241.131C66.2207 250.237 62.7364 261.174 58.0071 268.582C53.2825 275.982 46.5779 281.124 41.0456 284.418C38.2804 286.064 35.8117 287.247 34.0346 288.018C33.146 288.403 32.4308 288.686 31.9384 288.872C31.6922 288.964 31.5015 289.033 31.3731 289.079C31.349 289.087 31.3274 289.095 31.3075 289.102C31.249 289.048 31.1663 288.971 31.0617 288.873C30.8375 288.664 30.513 288.36 30.1108 287.977C29.3066 287.21 28.1926 286.131 26.9549 284.877C24.4769 282.369 21.5108 279.176 19.5328 276.414C17.6595 273.799 15.6756 270.178 14.1574 267.205C13.3989 265.72 12.7582 264.398 12.307 263.448C12.0811 262.974 11.9031 262.591 11.7815 262.328C11.7392 262.237 11.7036 262.16 11.6752 262.098C11.7455 262.049 11.8383 261.985 11.9506 261.907C12.229 261.713 12.6294 261.434 13.1154 261.091C14.0875 260.405 15.4048 259.463 16.7837 258.44C18.1621 257.419 19.6044 256.315 20.8261 255.306C22.0417 254.302 23.057 253.377 23.5672 252.714C23.8337 252.368 24.179 251.667 24.5756 250.737C24.9757 249.799 25.4384 248.601 25.9371 247.239C26.9341 244.514 28.0786 241.124 29.1608 237.815C30.2435 234.505 31.2642 231.277 32.0142 228.875C32.3892 227.674 32.6969 226.68 32.9104 225.986C33.0172 225.639 33.1007 225.367 33.1575 225.182C33.1714 225.137 33.1833 225.097 33.1939 225.063Z" fill="#9854CB" stroke="#9854CB" stroke-width="0.853463" stroke-linecap="round" stroke-linejoin="round"/>
<path d="M30.3307 233.412L28.9387 238.435C28.9387 238.435 29.2336 238.225 32.3942 235.991C34.2451 234.683 37.3303 234.213 37.3303 234.213L30.3307 233.412Z" fill="#330043"/>
<path d="M28.9384 238.435L28.7151 238.373L28.5405 239.003L29.0732 238.624L28.9384 238.435ZM30.3304 233.413L30.3566 233.182C30.2431 233.169 30.1371 233.24 30.1066 233.351L30.3304 233.413ZM37.33 234.214L37.3647 234.443C37.4795 234.425 37.5639 234.325 37.5618 234.209C37.5596 234.093 37.4719 233.996 37.3562 233.983L37.33 234.214ZM29.1621 238.497L30.5537 233.474L30.1066 233.351L28.7151 238.373L29.1621 238.497ZM30.3041 233.643L37.3037 234.444L37.3562 233.983L30.3566 233.182L30.3041 233.643ZM37.33 234.214C37.2952 233.984 37.2952 233.984 37.2948 233.984H37.2944C37.294 233.984 37.2931 233.985 37.2923 233.985C37.2906 233.985 37.288 233.986 37.2851 233.986C37.2787 233.987 37.2694 233.988 37.2575 233.99C37.2338 233.994 37.1986 234 37.1537 234.008C37.0639 234.024 36.9342 234.047 36.7732 234.08C36.4507 234.145 36.0016 234.246 35.4935 234.388C34.4829 234.671 33.2185 235.124 32.26 235.802L32.5278 236.18C33.4206 235.549 34.6236 235.114 35.6185 234.835C36.1134 234.696 36.5511 234.598 36.8651 234.535C37.0219 234.503 37.1478 234.48 37.2338 234.465C37.2766 234.457 37.3101 234.452 37.3321 234.448C37.3431 234.446 37.3516 234.445 37.3571 234.444C37.3596 234.444 37.3617 234.443 37.363 234.443C37.3639 234.443 37.3643 234.443 37.3647 234.443C37.3647 234.443 37.3647 234.443 37.33 234.214ZM32.26 235.802C30.6795 236.918 29.816 237.529 29.3469 237.861C29.1126 238.027 28.977 238.123 28.8998 238.178C28.8613 238.205 28.8376 238.222 28.8232 238.232C28.816 238.237 28.8113 238.241 28.8083 238.243C28.8066 238.244 28.8058 238.244 28.8049 238.245C28.8045 238.245 28.8045 238.245 28.8041 238.246C28.8041 238.246 28.8041 238.246 28.9384 238.435C29.0732 238.624 29.0732 238.624 29.0732 238.624C29.0732 238.623 29.0736 238.623 29.074 238.623C29.0744 238.622 29.0753 238.622 29.077 238.621C29.0799 238.619 29.0846 238.616 29.0914 238.611C29.1058 238.6 29.1295 238.583 29.1681 238.556C29.2448 238.502 29.3804 238.406 29.6147 238.24C30.0838 237.908 30.9473 237.297 32.5278 236.18L32.26 235.802Z" fill="#330043"/>
<path d="M16.504 256.686C16.504 256.686 18.8655 264.364 26.243 273.289C33.6206 282.214 39.9431 286.709 39.9431 286.709" stroke="#DDC7F8" stroke-width="0.853463" stroke-linecap="round" stroke-linejoin="round"/>
<path d="M50.1893 231.729C50.1893 231.729 52.9393 244.211 47.2279 256.271C41.5164 268.33 26.0748 272.774 26.0748 272.774" stroke="#DDC7F8" stroke-width="0.853463" stroke-linecap="round" stroke-linejoin="round"/>
<path d="M54.3087 174.177C54.3087 174.177 56.4252 176.586 58.7519 175.851C60.9125 175.168 60.5172 174.177 60.5172 174.177C60.5172 174.177 72.8011 174.642 82.4075 186.214C92.6711 198.577 97.1271 221.857 97.1271 221.857C97.1271 221.857 79.7088 232.614 66.4481 235.03C52.91 237.496 27.9188 234.075 27.9188 234.075C27.9188 234.075 26.4726 204.346 35.9243 189.313C45.0417 174.813 54.3087 174.177 54.3087 174.177Z" fill="#FFCD34"/>
<path d="M125.905 174.616L126.063 174.637L126.064 174.637L126.068 174.638C126.071 174.638 126.077 174.639 126.085 174.64C126.099 174.642 126.122 174.644 126.152 174.647C126.211 174.654 126.299 174.662 126.412 174.671C126.636 174.688 126.957 174.705 127.339 174.705C128.107 174.706 129.114 174.639 130.091 174.373C131.069 174.106 131.998 173.644 132.633 172.87C133.264 172.103 133.629 171.001 133.432 169.401C133.355 168.772 133.095 168.32 132.855 168.026C132.735 167.879 132.62 167.771 132.536 167.701C132.494 167.666 132.461 167.641 132.438 167.625C132.427 167.617 132.419 167.611 132.414 167.608C132.411 167.606 132.41 167.605 132.409 167.604H132.408L132.148 167.442L125.905 174.616ZM125.905 174.616L125.83 174.756C125.829 174.756 125.829 174.757 125.828 174.758C125.826 174.761 125.824 174.766 125.819 174.773C125.811 174.787 125.798 174.808 125.779 174.837C125.741 174.894 125.68 174.98 125.593 175.087C125.419 175.302 125.139 175.603 124.721 175.941C123.886 176.614 122.497 177.432 120.296 177.973C118.106 178.512 115.982 178.352 114.401 178.054C113.612 177.905 112.96 177.723 112.507 177.578C112.28 177.505 112.103 177.442 111.984 177.398C111.961 177.389 111.941 177.382 111.923 177.374L110.626 169.366L111.286 162.787C111.288 162.782 111.29 162.777 111.292 162.77C111.3 162.744 111.312 162.706 111.329 162.656C111.362 162.556 111.41 162.411 111.473 162.232C111.597 161.875 111.777 161.382 111.997 160.841C112.442 159.752 113.04 158.499 113.672 157.754C114.423 156.87 115.118 156.25 115.9 155.774C116.682 155.298 117.561 154.959 118.685 154.652C120.769 154.082 123.118 154.115 124.779 155.384C125.29 155.774 125.548 156.323 125.677 156.788C125.741 157.019 125.772 157.225 125.787 157.373C125.795 157.447 125.798 157.506 125.8 157.545C125.8 157.565 125.801 157.58 125.801 157.589C125.801 157.595 125.801 157.598 125.801 157.6V157.601V157.602L125.797 157.938L126.113 157.822L126.115 157.821C126.116 157.821 126.118 157.82 126.121 157.819L126.126 157.817C126.132 157.815 126.14 157.812 126.149 157.809C126.174 157.8 126.211 157.787 126.259 157.772C126.355 157.74 126.494 157.695 126.666 157.646C127.012 157.548 127.486 157.43 128.006 157.351C128.527 157.272 129.086 157.235 129.603 157.292C130.121 157.35 130.577 157.5 130.913 157.782C131.608 158.364 131.697 159.011 131.621 159.518C131.582 159.776 131.5 160.001 131.426 160.161C131.39 160.241 131.356 160.304 131.331 160.346C131.319 160.367 131.31 160.383 131.303 160.393C131.3 160.398 131.298 160.402 131.296 160.404L131.295 160.406V160.406L131.025 160.806L131.506 160.766H131.507H131.509C131.512 160.766 131.516 160.766 131.522 160.765C131.533 160.765 131.551 160.764 131.574 160.763C131.621 160.762 131.689 160.761 131.773 160.764C131.941 160.77 132.168 160.791 132.408 160.85C132.892 160.968 133.383 161.228 133.59 161.784C133.831 162.431 133.943 162.898 133.942 163.414C133.942 163.937 133.826 164.527 133.584 165.422C133.457 165.89 133.161 166.342 132.885 166.685C132.748 166.855 132.62 166.993 132.526 167.089C132.479 167.138 132.441 167.175 132.415 167.2C132.402 167.212 132.392 167.221 132.385 167.228C132.382 167.231 132.38 167.233 132.378 167.234L132.377 167.236H132.377L125.905 174.616Z" fill="#F47155"/>
<path d="M125.905 174.616L126.063 174.637L126.064 174.637L126.068 174.638C126.071 174.638 126.077 174.639 126.085 174.64C126.099 174.642 126.122 174.644 126.152 174.647C126.211 174.654 126.299 174.662 126.412 174.671C126.636 174.688 126.957 174.705 127.339 174.705C128.107 174.706 129.114 174.639 130.091 174.373C131.069 174.106 131.998 173.644 132.633 172.87C133.264 172.103 133.629 171.001 133.432 169.401C133.355 168.772 133.095 168.32 132.855 168.026C132.735 167.879 132.62 167.771 132.536 167.701C132.494 167.666 132.461 167.641 132.438 167.625C132.427 167.617 132.419 167.611 132.414 167.608C132.411 167.606 132.41 167.605 132.409 167.604H132.408L132.148 167.442L125.905 174.616ZM125.905 174.616L125.83 174.756C125.829 174.756 125.829 174.757 125.828 174.758C125.826 174.761 125.824 174.766 125.819 174.773C125.811 174.787 125.798 174.808 125.779 174.837C125.741 174.894 125.68 174.98 125.593 175.087C125.419 175.302 125.139 175.603 124.721 175.941C123.886 176.614 122.497 177.432 120.296 177.973C118.106 178.512 115.982 178.352 114.401 178.054C113.612 177.905 112.96 177.723 112.507 177.578C112.28 177.505 112.103 177.442 111.984 177.398C111.961 177.389 111.941 177.382 111.923 177.374L110.626 169.366L111.286 162.787C111.288 162.782 111.29 162.777 111.292 162.77C111.3 162.744 111.312 162.706 111.329 162.656C111.362 162.556 111.41 162.411 111.473 162.232C111.597 161.875 111.777 161.382 111.997 160.841C112.442 159.752 113.04 158.499 113.672 157.754C114.423 156.87 115.118 156.25 115.9 155.774C116.682 155.298 117.561 154.959 118.685 154.652C120.769 154.082 123.118 154.115 124.779 155.384C125.29 155.774 125.548 156.323 125.677 156.788C125.741 157.019 125.772 157.225 125.787 157.373C125.795 157.447 125.798 157.506 125.8 157.545C125.8 157.565 125.801 157.58 125.801 157.589C125.801 157.595 125.801 157.598 125.801 157.6V157.601V157.602L125.797 157.938L126.113 157.822L126.115 157.821C126.116 157.821 126.118 157.82 126.121 157.819L126.126 157.817C126.132 157.815 126.14 157.812 126.149 157.809C126.174 157.8 126.211 157.787 126.259 157.772C126.355 157.74 126.494 157.695 126.666 157.646C127.012 157.548 127.486 157.43 128.006 157.351C128.527 157.272 129.086 157.235 129.603 157.292C130.121 157.35 130.577 157.5 130.913 157.782C131.608 158.364 131.697 159.011 131.621 159.518C131.582 159.776 131.5 160.001 131.426 160.161C131.39 160.241 131.356 160.304 131.331 160.346C131.319 160.367 131.31 160.383 131.303 160.393C131.3 160.398 131.298 160.402 131.296 160.404L131.295 160.406V160.406L131.025 160.806L131.506 160.766H131.507H131.509C131.512 160.766 131.516 160.766 131.522 160.765C131.533 160.765 131.551 160.764 131.574 160.763C131.621 160.762 131.689 160.761 131.773 160.764C131.941 160.77 132.168 160.791 132.408 160.85C132.892 160.968 133.383 161.228 133.59 161.784C133.831 162.431 133.943 162.898 133.942 163.414C133.942 163.937 133.826 164.527 133.584 165.422C133.457 165.89 133.161 166.342 132.885 166.685C132.748 166.855 132.62 166.993 132.526 167.089C132.479 167.138 132.441 167.175 132.415 167.2C132.402 167.212 132.392 167.221 132.385 167.228C132.382 167.231 132.38 167.233 132.378 167.234L132.377 167.236H132.377L125.905 174.616Z" stroke="#F47155" stroke-width="0.853463"/>
<path d="M60.5341 174.174L84.5041 201.058C84.5041 201.058 98.3931 197.553 106.928 188.595C111.738 183.547 113.433 178.223 113.433 178.223L111.077 162.799C111.077 162.799 103.244 163.237 87.1028 167.175C74.1167 170.342 60.5341 174.174 60.5341 174.174Z" fill="#FFCD34"/>
<path d="M90.4942 199.655C90.4942 199.655 87.6175 193.482 84.7145 190.436" stroke="#330043" stroke-width="0.853463" stroke-linecap="round"/>
<path d="M118.409 150.351L114.348 152.241L116.538 156.949L120.599 155.059L118.409 150.351Z" fill="#9854CB"/>
<path d="M99.8189 154.03C100.19 154.03 100.591 153.94 100.992 153.761C101.324 153.612 101.633 153.423 101.93 153.241C102.177 153.09 102.41 152.946 102.657 152.824L102.409 152.323C102.14 152.455 101.885 152.612 101.638 152.764C101.342 152.945 101.063 153.116 100.764 153.25C100.48 153.376 99.7566 153.638 99.1807 153.322C98.4748 152.935 98.3918 151.869 98.7583 151.155C99.1731 150.346 100.003 149.8 100.736 149.318L100.428 148.85C99.6774 149.345 98.7426 149.96 98.2604 150.899C97.7659 151.863 97.91 153.264 98.9117 153.812C99.1765 153.957 99.4858 154.03 99.8189 154.03Z" fill="#DDC7F8"/>
<path d="M146.977 145.904C146.977 145.904 146.42 146.05 144.895 146.14C144.701 146.151 144.491 146.162 144.263 146.173C144.08 146.181 143.882 146.188 143.676 146.192C141.856 146.237 139.153 146.195 135.259 145.904C135.259 145.904 130.399 145.144 124.16 148.211C122.538 149.007 120.546 150.125 118.396 151.216C118.206 151.318 118.019 151.415 117.832 151.504C115.428 152.708 112.853 153.845 110.404 154.447C110.169 154.503 109.937 154.555 109.705 154.6C109.605 154.623 109.508 154.641 109.406 154.66C106.128 155.277 103.149 154.783 101.19 152.016C98.6334 148.409 99.2054 145.362 101.355 142.468C101.463 142.318 101.575 142.165 101.699 142.016C101.755 141.94 101.814 141.866 101.877 141.791C103.594 139.723 106.05 137.72 108.681 135.626C108.857 135.484 109.033 135.342 109.212 135.204C109.627 134.871 110.038 134.542 110.46 134.206C117.735 128.37 119.331 125.468 119.783 124.003C120.164 122.747 121.727 115.407 123.966 113.03C124.067 112.925 124.164 112.832 124.265 112.746C124.362 112.667 124.459 112.596 124.556 112.532C124.766 112.402 124.983 112.323 125.199 112.297C130.903 111.598 139.183 122.305 141.299 125.637C141.299 125.637 151.508 143.029 146.977 145.904Z" fill="#9854CB"/>
<path d="M128.189 127.025C129.986 130.59 131.95 134.358 134.424 137.733C137.161 141.473 140.228 144.294 143.536 146.118C143.58 146.141 143.625 146.169 143.676 146.192C144.14 146.181 144.543 146.163 144.896 146.141C144.51 146.001 144.145 145.817 143.805 145.626C140.569 143.84 137.564 141.075 134.872 137.403C134.581 137.006 134.295 136.608 134.027 136.2L134.021 136.194C134.016 136.189 134.01 136.183 134.005 136.171C131.956 133.154 130.26 129.885 128.688 126.773C128.458 126.314 128.223 125.854 128.005 125.396C127.921 125.228 127.837 125.06 127.759 124.892C125.839 120.912 124.328 116.96 124.535 112.824C124.541 112.728 124.546 112.627 124.557 112.532C124.356 112.661 124.16 112.824 123.964 113.03C123.796 117.867 125.866 122.407 128.189 127.025Z" fill="#DDC7F8"/>
<path d="M134.339 136.75C135.136 135.781 135.961 134.78 136.456 133.577C137.475 131.107 136.779 128.012 134.801 126.217C132.825 124.42 129.677 124.024 127.316 125.276L127.579 125.77C129.738 124.626 132.616 124.989 134.425 126.631C136.234 128.273 136.871 131.105 135.939 133.364C135.475 134.489 134.678 135.457 133.907 136.393L134.339 136.75Z" fill="#DDC7F8"/>
<path d="M108.679 135.629C109.244 141.904 112.647 147.899 117.83 151.504C118.02 151.415 118.205 151.319 118.395 151.218C113.095 147.646 109.664 141.556 109.211 135.203C109.032 135.343 108.858 135.483 108.679 135.629Z" fill="#DDC7F8"/>
<path d="M101.353 142.469C101.706 147.093 104.252 151.493 108.198 154C108.617 154.269 109.02 154.493 109.406 154.661C109.736 154.599 110.067 154.527 110.403 154.448C109.815 154.274 109.188 153.967 108.5 153.531C104.588 151.04 102.053 146.432 101.879 141.792C101.689 142.016 101.515 142.245 101.353 142.469Z" fill="#DDC7F8"/>
<path d="M119.439 161.054H123.072L122.216 161.941L121.845 162.845L122.07 163.781L122.603 164.653L121.57 166.17L122.264 167.768L123.103 168.817L122.264 169.398L120.372 165.409L119.359 163.232L119.175 162.518L119.439 161.054Z" fill="#9854CB"/>
<path d="M131.138 160.695C131.138 160.695 130.132 162.486 127.755 163.929C125.864 165.076 122.561 166.1 121.931 163.371C121.583 161.863 123.393 160.958 123.393 160.958" stroke="#330043" stroke-width="0.853463" stroke-linecap="round" stroke-linejoin="round"/>
<path d="M132.391 167.245C132.391 167.245 130.39 169.106 129.026 169.463C127.347 169.902 122.743 169.333 121.885 167.245C121.143 165.44 122.743 164.763 122.743 164.763" stroke="#330043" stroke-width="0.853463" stroke-linecap="round" stroke-linejoin="round"/>
<path d="M125.848 157.859C125.848 157.859 125.848 159.242 124.534 160.394C123.011 161.728 119.436 160.938 119.436 160.938C119.436 160.938 119.281 162.981 118.527 164.055C117.816 165.067 117.094 165.567 117.094 165.567" stroke="#330043" stroke-width="0.853463" stroke-linecap="round" stroke-linejoin="round"/>
<path d="M126.118 174.671C126.118 174.671 122.777 174.395 121.839 171.819C120.9 169.244 123.428 168.717 123.428 168.717" stroke="#330043" stroke-width="0.853463" stroke-linecap="round" stroke-linejoin="round"/>
<path d="M27.9441 224.066L41.5094 203.143V235.413L27.9441 234.052V224.066Z" fill="#F4BD15"/>
<path d="M9.80918 234.879L13.1783 238.434L5.84434 245.386C4.86298 246.317 3.31297 246.275 2.38246 245.294C1.45237 244.312 1.4939 242.761 2.47526 241.831L9.80918 234.879Z" fill="#F47155"/>
<path d="M8.16333 233.414L13.749 234.941L6.28239 242.019C5.25993 242.988 3.6451 242.945 2.67602 241.922C1.76331 240.959 1.74085 239.457 2.62433 238.468L5.28832 235.482L8.16333 233.414Z" fill="#F47155"/>
<path fill-rule="evenodd" clip-rule="evenodd" d="M17.9142 235.921L17.9154 235.918L10.6451 234.024L3.08147 245.83C2.50605 246.728 2.61706 247.902 3.35054 248.676C4.41198 249.796 6.26284 249.594 7.13488 248.321C8.85183 245.813 11.5298 242.39 13.3518 242.39C13.3989 242.39 13.4463 242.387 13.4938 242.379C13.8641 242.42 14.3374 242.68 14.0213 243.836C13.7451 244.846 13.4099 246.792 13.1718 248.286C12.9904 249.424 13.7294 250.498 14.8527 250.754C15.7447 250.958 16.6705 250.591 17.1404 249.806C18.0336 248.312 19.3972 245.802 19.7722 243.836C20.3248 240.94 19.7722 236.288 19.7722 236.288L17.9142 235.921Z" fill="#F47155"/>
<path d="M26.8405 183.292C15.4655 192.606 3.12898 205.697 2.06541 215.74C1.00143 225.784 7.56416 234.208 7.56416 234.208L20.4596 237.211C30.7032 231.805 40.7122 208.471 40.7122 208.471L54.2228 174.187C54.2228 174.187 38.2151 173.979 26.8405 183.292Z" fill="#FFCD34"/>
<path d="M7.35391 240.246C7.35391 240.246 5.2556 242.227 4.40983 243.379C3.80813 244.199 3.16406 245.682 3.16406 245.682" stroke="black" stroke-width="0.853463" stroke-linecap="round"/>
<path d="M5.57923 238.283C5.57923 238.283 3.97117 239.735 3.12541 240.888C2.52371 241.707 1.87964 243.19 1.87964 243.19" stroke="black" stroke-width="0.853463" stroke-linecap="round"/>
<path d="M165.744 113.955C163.079 115.044 159.297 117.367 154.275 117.611" stroke="#330043" stroke-width="5.12906" stroke-linecap="round"/>
<path d="M163.958 97.6401C161.72 101.288 155.869 109.379 150.371 112.56" stroke="#330043" stroke-width="5.12906" stroke-linecap="round"/>
<path d="M145.958 109.432C146.628 107.067 148.322 101.95 149.733 100.4" stroke="#330043" stroke-width="5.12906" stroke-linecap="round"/>
<path d="M177.819 198.669C178.193 201.973 180.081 208.58 184.643 208.58" stroke="#330043" stroke-width="2.58051" stroke-linecap="round"/>
<path d="M177.819 215.78C177.445 212.165 175.557 204.934 170.994 204.934" stroke="#330043" stroke-width="2.58051" stroke-linecap="round"/>
<path d="M177.819 198.575C177.445 200.695 175.557 204.934 170.994 204.934" stroke="#330043" stroke-width="2.58051" stroke-linecap="round"/>
<path d="M177.819 215.78C178.193 213.411 180.081 208.674 184.643 208.674" stroke="#330043" stroke-width="2.58051" stroke-linecap="round"/>
</g>
<defs>
<clipPath id="clip0_737_5369">
<rect width="259.577" height="256.614" fill="white" transform="translate(-74.2108 77.8933)"/>
</clipPath>
</defs>
</svg>
