<svg width="360" height="315" viewBox="0 0 360 315" fill="none" xmlns="http://www.w3.org/2000/svg">
<path d="M-31.7126 368.124C-39.5475 359.929 -41.8734 352.708 -41.4503 346.001C-41.0163 339.122 -37.6802 332.391 -33.3132 325.22C-32.1302 323.277 -30.8649 321.294 -29.5765 319.275C-26.2219 314.017 -22.7114 308.514 -20.0925 302.849C-16.412 294.887 -14.2833 286.223 -16.4794 276.611C-19.5879 263.005 -28.6859 253.999 -36.8766 245.892C-37.7348 245.042 -38.5831 244.203 -39.4134 243.369C-48.317 234.425 -55.2949 226.089 -53.923 212.754C-52.5742 199.645 -45.0865 192.464 -35.5443 185.357C-34.035 184.233 -32.4678 183.109 -30.8681 181.961C-22.4644 175.931 -13.1664 169.259 -6.68594 158.645C-0.835807 149.064 1.58631 138.591 2.61288 128.157C3.34673 120.697 3.37415 113.101 3.40034 105.845C3.41051 103.024 3.4205 100.255 3.47173 97.5652C3.6575 87.8112 4.37962 79.0243 7.33857 71.6655C10.2435 64.4411 15.3473 58.4921 24.6148 54.4651C40.3599 47.6234 52.7736 53.3309 66.4117 61.7574C68.2542 62.8958 70.1205 64.0868 72.0186 65.2981C83.9764 72.9291 97.1969 81.3661 113.701 82.5431C128.21 83.5778 140.076 79.7513 151.101 76.1958C152.386 75.7816 153.659 75.3711 154.923 74.9723C167.093 71.1349 178.623 68.3067 192.938 72.5951C210.649 77.9007 219.694 89.3158 228.229 102.782C229.56 104.882 230.881 107.038 232.223 109.228C239.438 121.008 247.257 133.771 260.5 144.064C271.94 152.955 285.047 156.752 296.952 160.201C299.67 160.989 302.325 161.758 304.883 162.566C318.793 166.956 330.161 172.472 336.045 187.489C339.895 197.314 338.21 205.636 335.901 214.685C335.738 215.324 335.572 215.967 335.404 216.615C333.217 225.068 330.828 234.301 333.142 245.217C336.001 258.707 344.905 267.471 352.94 275.379C353.652 276.08 354.358 276.774 355.052 277.465C363.716 286.085 370.68 294.115 369.831 307.102C369.195 316.823 365.53 323.249 359.977 327.938C354.309 332.725 346.533 335.823 337.464 338.497C333.396 339.696 329.134 340.793 324.736 341.924C324.251 342.049 323.765 342.174 323.277 342.3C318.38 343.561 313.341 344.88 308.343 346.425C298.355 349.512 288.391 353.539 279.777 359.976C265.333 370.77 256.122 384.209 247.616 396.621C245.538 399.652 243.503 402.622 241.444 405.477C230.902 420.092 219.568 432.077 198.391 436.114C177.771 440.045 163.172 427.068 148.774 410.37C146.351 407.56 143.925 404.632 141.483 401.687C136.813 396.054 132.089 390.354 127.228 385.28C119.78 377.504 111.679 370.813 102.234 367.522C92.7155 364.205 81.3675 364.892 69.5206 367.003C61.6924 368.398 53.3967 370.471 45.0828 372.548C40.8359 373.609 36.5842 374.671 32.3877 375.645C19.837 378.557 7.62375 380.723 -3.41242 380.107C-14.3789 379.496 -24.0425 376.147 -31.7126 368.124Z" fill="white" stroke="#ECEBFA" stroke-width="4.74605"/>
<g clip-path="url(#clip0_737_5369)">
<path d="M96.9109 286.58L124.798 273.848L130.195 285.673C130.195 285.673 121.888 290.154 116.39 292.66C110.985 295.123 102.308 298.405 102.308 298.405L96.9109 286.58Z" fill="#6D62D5"/>
<path d="M102.033 297.803C102.033 297.803 110.848 294.634 116.3 292.145C121.752 289.656 129.92 285.071 129.92 285.071C129.92 285.071 156.184 287.498 158.532 288.706C160.88 289.914 161.004 290.91 161.004 290.91C161.004 290.91 145.785 299.134 135.71 303.731C125.691 308.302 109.598 314.379 109.598 314.379L102.033 297.803Z" fill="#FF4A97"/>
<path d="M136.409 292.051L136.877 283.671" stroke="#330043" stroke-width="0.853463" stroke-linecap="round"/>
<path d="M133.681 285.252L129.77 273.514" stroke="#330043" stroke-width="0.853463" stroke-linecap="round"/>
<path d="M139.393 292.042L139.861 283.662" stroke="#330043" stroke-width="0.853463" stroke-linecap="round"/>
<path d="M142.378 292.042L142.846 283.662" stroke="#330043" stroke-width="0.853463" stroke-linecap="round"/>
<path d="M133.773 285.543C133.773 285.543 130.499 264.559 133.924 269.525C136.37 273.07 133.773 285.543 133.773 285.543" stroke="#330043" stroke-width="0.853463" stroke-linecap="round"/>
<path d="M146.63 287.034C146.63 287.034 146.548 287.697 147.378 291.633C148.208 295.568 149.742 296.613 149.742 296.613" stroke="#6D62D5" stroke-width="0.853463" stroke-linecap="square"/>
<path d="M110.698 316.789C110.698 316.789 126.883 310.805 136.931 306.217C146.979 301.63 162.103 293.32 162.103 293.32L160.762 290.381C160.762 290.381 145.638 298.692 135.59 303.279C125.542 307.866 109.357 313.851 109.357 313.851L110.698 316.789Z" fill="#FF4A97"/>
<path d="M100.93 294.406C100.93 294.406 109.525 291.355 114.833 288.932C120.142 286.508 128.077 282.012 128.077 282.012" stroke="#330043" stroke-width="0.853463" stroke-linecap="round"/>
<path d="M109.449 313.565C109.449 313.565 124.966 308.633 133.537 304.72C142.108 300.807 160.809 290.962 160.809 290.962" stroke="#6D62D5" stroke-width="0.853463" stroke-linecap="square"/>
<path d="M99.0833 290.36C99.0833 290.36 107.679 287.309 112.987 284.886C118.295 282.462 126.231 277.966 126.231 277.966" stroke="#330043" stroke-width="0.853463" stroke-linecap="round"/>
<path d="M104.417 302.533C104.417 302.533 109.515 299.232 115.263 301.616C121.01 304 122.117 309.025 122.117 309.025" stroke="#6D62D5" stroke-width="0.853463" stroke-linecap="square"/>
<path d="M20.8563 262.454L37.1169 288.446L26.0987 295.342C26.0987 295.342 20.5728 287.689 17.3715 282.564C14.2245 277.526 9.83801 269.35 9.83801 269.35L20.8563 262.454Z" fill="#6D62D5"/>
<path d="M10.3997 268.998C10.3997 268.998 14.6908 277.326 17.8701 282.408C21.0493 287.489 26.6604 294.99 26.6604 294.99C26.6604 294.99 27.6824 321.351 26.7913 323.837C25.9002 326.323 24.9294 326.576 24.9294 326.576C24.9294 326.576 14.7904 312.558 8.91876 303.167C3.07933 293.828 -5.04443 278.664 -5.04443 278.664L10.3997 268.998Z" fill="#FF4A97"/>
<path d="M20.5881 302.336L28.9555 301.706" stroke="#330043" stroke-width="0.853463" stroke-linecap="round"/>
<path d="M26.9719 298.744L38.0965 293.333" stroke="#330043" stroke-width="0.853463" stroke-linecap="round"/>
<path d="M20.9868 305.294L29.3542 304.665" stroke="#330043" stroke-width="0.853463" stroke-linecap="round"/>
<path d="M21.3762 308.254L29.7436 307.624" stroke="#330043" stroke-width="0.853463" stroke-linecap="round"/>
<path d="M26.6957 298.873C26.6957 298.873 47.0682 292.887 42.5936 296.931C39.3983 299.82 26.6957 298.873 26.6957 298.873Z" stroke="#330043" stroke-width="0.853463" stroke-linecap="round"/>
<path d="M26.8949 311.816C26.8949 311.816 26.2267 311.822 22.4339 313.158C18.6411 314.495 17.8059 316.153 17.8059 316.153" stroke="#6D62D5" stroke-width="0.853463" stroke-linecap="square"/>
<path d="M-7.29016 280.069C-7.29016 280.069 0.754784 295.338 6.61328 304.703C12.4722 314.068 22.6837 327.981 22.6837 327.981L25.4214 326.268C25.4214 326.268 15.2099 312.355 9.351 302.99C3.49251 293.624 -4.55244 278.356 -4.55244 278.356L-7.29016 280.069Z" fill="#FF4A97"/>
<path d="M13.6226 267.461C13.6226 267.461 17.7688 275.586 20.8641 280.534C23.959 285.482 29.4519 292.763 29.4519 292.763" stroke="#330043" stroke-width="0.853463" stroke-linecap="round"/>
<path d="M-4.25696 278.41C-4.25696 278.41 2.65747 293.153 7.65495 301.141C12.6524 309.13 24.8525 326.389 24.8525 326.389" stroke="#6D62D5" stroke-width="0.853463" stroke-linecap="square"/>
<path d="M17.392 265.102C17.392 265.102 21.5377 273.227 24.6331 278.175C27.7284 283.122 33.2213 290.404 33.2213 290.404" stroke="#330043" stroke-width="0.853463" stroke-linecap="round"/>
<path d="M6.02187 271.981C6.02187 271.981 9.9596 276.606 8.34646 282.616C6.73374 288.627 1.89685 290.38 1.89685 290.38" stroke="#6D62D5" stroke-width="0.853463" stroke-linecap="square"/>
<path d="M80.652 82.0433C85.1969 82.143 88.0139 83.5403 89.8906 85.6676C91.7783 87.8076 92.7406 90.7135 93.5139 93.8881C93.7304 94.7756 93.9317 95.6851 94.1351 96.6028C94.6546 98.9481 95.1864 101.347 96.0054 103.572C97.1499 106.679 98.8677 109.486 101.933 111.409C106.339 114.173 111.099 114.149 115.589 114.126C116.053 114.123 116.515 114.121 116.972 114.122C121.878 114.13 126.38 114.487 129.879 118.785C133.295 122.981 133.178 127.256 132.506 131.87C132.398 132.613 132.275 133.365 132.15 134.128C131.504 138.086 130.814 142.309 131.914 146.847C132.906 150.941 135.048 154.383 137.593 157.48C139.416 159.699 141.456 161.752 143.431 163.74C144.208 164.521 144.974 165.292 145.714 166.059C148.343 168.789 150.635 171.472 151.896 174.426C153.152 177.367 153.39 180.585 151.888 184.403C149.316 190.94 144.031 192.85 137.953 194.29C137.12 194.487 136.271 194.676 135.413 194.866C130.035 196.06 124.288 197.336 119.585 201.418C115.432 205.023 113.289 209.209 111.239 213.215C111.001 213.68 110.764 214.142 110.526 214.601C108.23 219.019 105.767 223.116 100.477 225.972C93.9452 229.498 88.1291 228.807 82.049 227.447C81.091 227.233 80.1261 227.002 79.1507 226.769C73.9422 225.522 68.4345 224.203 62.1171 224.999C56.6875 225.683 52.1946 228.159 47.9912 230.475C47.0188 231.011 46.0616 231.539 45.1116 232.034C40.0446 234.674 35.17 236.404 29.1424 233.773C25.178 232.044 23.2628 229.128 21.4047 226.001C21.2763 225.785 21.1479 225.568 21.0195 225.35C19.2916 222.421 17.4894 219.367 14.0017 217.102C9.69957 214.307 5.05972 214.344 0.663943 214.379C0.283433 214.382 -0.0953841 214.385 -0.471657 214.386C-5.21744 214.401 -9.62127 214.127 -13.1709 210.084C-15.7823 207.111 -16.6069 204.161 -16.3556 201.159C-16.1026 198.142 -14.7624 195.054 -13.0018 191.816C-12.2098 190.36 -11.3361 188.879 -10.4425 187.364C-10.3437 187.197 -10.2446 187.029 -10.1454 186.861C-9.14965 185.171 -8.13821 183.44 -7.20092 181.661C-5.32676 178.105 -3.742 174.348 -3.16361 170.332C-2.18437 163.535 -3.31997 157.463 -4.39116 151.735C-4.65557 150.322 -4.91574 148.93 -5.13947 147.553C-6.27125 140.588 -6.47846 133.979 -1.63692 126.846C3.1737 119.76 11.1267 119.363 19.6411 119.988C21.1055 120.096 22.5878 120.234 24.0712 120.372C26.8793 120.633 29.6908 120.895 32.392 120.951C36.5272 121.038 40.4531 120.648 43.7984 119.029C47.1506 117.407 49.9879 114.229 52.64 110.421C54.3896 107.91 56.0718 105.102 57.7718 102.266C58.6476 100.804 59.5282 99.3352 60.4248 97.8944C63.0701 93.6446 65.865 89.6282 69.1358 86.6994C72.4011 83.7752 76.1299 81.9441 80.652 82.0433Z" fill="#330043" stroke="#330043" stroke-width="0.853463"/>
<path d="M-7.30563 169.685C-4.74673 151.856 -15.9925 138.826 -5.6675 123.588C4.65755 108.349 28.4839 121.995 42.4047 115.25C49.9637 111.588 55.0942 100.237 61.3124 90.6971M135.806 144.864C133.061 133.53 140.953 124.128 133.6 115.084C126.054 105.802 114.151 113.584 104.028 107.221C99.1579 104.16 97.5524 98.939 96.3304 93.639" stroke="#330043" stroke-width="0.853463"/>
<path d="M97.5356 140.318C98.1932 144.112 95.7763 147.7 92.1368 148.331L88.5072 148.961L88.4741 136.827C88.4741 136.827 90.3165 135.644 91.9589 135.359C95.5983 134.728 96.8775 136.524 97.5356 140.318Z" fill="#F47155"/>
<path d="M62.5676 169.274H67.8206L69.0053 179.016H62.1489L62.5676 169.274Z" fill="#F47155"/>
<path d="M68.0793 170.164L62.6064 170.707C62.6064 170.707 67.3921 174.549 68.0793 172.555C68.6162 170.997 68.0793 170.164 68.0793 170.164Z" fill="#330043" stroke="#330043" stroke-width="0.853463" stroke-linecap="round" stroke-linejoin="round"/>
<path d="M28.6187 154.045C29.4399 158.782 33.7891 161.983 38.3323 161.195L42.8641 160.409L37.8035 146.131C37.8035 146.131 35.1408 145.516 33.0903 145.871C28.5467 146.659 27.7975 149.308 28.6187 154.045Z" fill="#F47155"/>
<path d="M90.7895 142.328C93.0196 155.191 83.0598 167.659 68.5437 170.177C54.0275 172.695 40.452 164.308 38.222 151.446C37.358 146.461 37.4156 146.126 37.4156 146.126C37.4156 146.126 49.9161 142.569 55.439 137.254C60.9572 131.943 62.4614 118.941 62.4614 118.941C62.4614 118.941 68.3594 127.948 73.9793 131.525C79.4535 135.01 89.7984 136.61 89.7984 136.61C89.7984 136.61 89.9255 137.343 90.7895 142.328Z" fill="#F47155"/>
<path d="M58.8391 144.208C59.3011 144.128 59.6107 143.688 59.5306 143.226C59.4505 142.764 59.011 142.454 58.5489 142.535C58.0868 142.615 57.7772 143.054 57.8574 143.516C57.9375 143.979 58.377 144.288 58.8391 144.208Z" fill="#330043"/>
<path d="M77.0089 141.314C77.4709 141.234 77.7805 140.794 77.7004 140.332C77.6203 139.87 77.1808 139.56 76.7187 139.64C76.2566 139.721 75.947 140.16 76.0272 140.622C76.1073 141.084 76.5468 141.394 77.0089 141.314Z" fill="#330043"/>
<path d="M68.5268 139.737C68.5268 139.737 68.4136 141.969 68.6895 143.357C68.9352 144.594 69.7395 146.412 69.7395 146.412" stroke="#330043" stroke-width="0.798428" stroke-linecap="round"/>
<path d="M79.1029 153.769C79.1029 157.846 70.0554 162.17 65.9791 162.17C61.9032 162.17 56.6617 158.634 56.6617 154.557C56.6617 150.48 64.0032 151.538 68.0791 151.538C72.1554 151.538 79.1029 149.693 79.1029 153.769Z" fill="#330043"/>
<path d="M73.2457 159.639C73.2457 159.639 69.1457 161.763 66.0186 161.879C61.9427 161.879 59.1935 159.091 59.1935 159.091C59.6423 156.846 63.3953 155.937 66.3448 156.386C69.8436 156.918 71.4885 157.778 73.2457 159.639Z" fill="#FF4A97"/>
<path d="M38.6967 105.733C42.6134 105.054 45.238 101.328 44.5588 97.4101C43.8796 93.4926 40.1539 90.8676 36.2371 91.5469C32.3203 92.2262 29.6957 95.9526 30.3749 99.8701C31.0541 103.788 34.7799 106.413 38.6967 105.733Z" fill="#330043" stroke="#330043" stroke-width="0.853463"/>
<path d="M148.775 142.523C152.692 141.844 155.316 138.117 154.637 134.2C153.958 130.283 150.232 127.658 146.315 128.337C142.399 129.016 139.774 132.743 140.453 136.66C141.132 140.577 144.858 143.203 148.775 142.523Z" fill="#330043" stroke="#330043" stroke-width="0.853463"/>
<path d="M38.5965 157.448C38.5965 157.448 40.644 162.711 40.9207 165.239C41.3588 169.24 40.2651 172.643 38.4783 172.839C36.691 173.034 34.8876 169.949 34.4494 165.947C34.2596 164.213 34.6744 161.295 34.6744 161.295" stroke="#FFCD34" stroke-width="0.853463" stroke-linecap="round"/>
<path d="M92.9888 145.727C92.9888 145.727 91.8833 151.264 92.0486 153.802C92.3104 157.819 93.977 160.981 95.7706 160.864C97.5647 160.747 97.8092 157.819 97.5478 153.802C97.3249 150.384 95.7706 147.467 95.7706 147.467" stroke="#FFCD34" stroke-width="0.853463" stroke-linecap="round"/>
<path d="M92.3964 141.433C92.3964 141.433 91.3689 143.418 91.0447 144.795" stroke="#330043" stroke-width="0.853463" stroke-linecap="round"/>
<path d="M33.4223 150.399C33.4223 150.399 34.7189 152.218 35.2333 153.536C35.6918 154.712 35.9926 156.677 35.9926 156.677" stroke="#330043" stroke-width="0.853463" stroke-linecap="round"/>
<path d="M90.7893 142.336C93.0194 155.199 83.0596 167.667 68.5435 170.185C54.0273 172.703 40.4518 164.316 38.2217 151.453" stroke="#330043" stroke-width="0.853463" stroke-linecap="round"/>
<path d="M66.2943 231.667L101.1 217.081L126.692 273.549C126.63 273.586 126.553 273.631 126.462 273.685C126.199 273.841 125.815 274.068 125.335 274.348C124.375 274.908 123.03 275.684 121.488 276.545C118.403 278.27 114.54 280.333 111.411 281.705C107.891 283.248 103.222 284.824 99.4283 286.015C97.5321 286.611 95.8571 287.11 94.6554 287.46C94.0549 287.635 93.5727 287.773 93.241 287.867C93.0969 287.907 92.9812 287.94 92.896 287.964C92.8918 287.956 92.8872 287.949 92.8825 287.941C92.8134 287.828 92.7113 287.66 92.5795 287.444C92.3164 287.01 91.9346 286.379 91.4609 285.591C90.513 284.013 89.1965 281.805 87.7227 279.279C84.774 274.226 81.1969 267.908 78.6761 262.837C75.7142 256.879 72.6019 249.037 70.2286 242.68C69.0421 239.503 68.0413 236.698 67.337 234.688C66.9849 233.683 66.707 232.876 66.5171 232.321C66.4222 232.043 66.3489 231.829 66.2998 231.684C66.2981 231.678 66.2959 231.673 66.2943 231.667Z" fill="#9854CB" stroke="#9854CB" stroke-width="0.853463" stroke-linecap="round" stroke-linejoin="round"/>
<path d="M88.6973 281.423C88.6973 281.423 99.0587 280.671 109.191 275.424C119.322 270.177 124.337 265.968 124.337 265.968" stroke="#DDC7F8" stroke-width="0.853463" stroke-linecap="round" stroke-linejoin="round"/>
<path d="M74.702 241.096L73.0635 252.236C73.0635 252.236 76.8902 249.007 77.7118 246.624C78.3537 244.762 79.6563 240.207 79.6563 240.207L74.702 241.096Z" fill="#330043" stroke="#330043" stroke-width="0.853463" stroke-linecap="round" stroke-linejoin="round"/>
<path d="M75.1121 241.403C75.1121 241.403 80.4799 256.34 85.5981 265.002C90.7159 273.665 96.3592 280.096 96.3592 280.096" stroke="#DDC7F8" stroke-width="0.853463" stroke-linecap="round" stroke-linejoin="round"/>
<path d="M41.1939 226.063L79.8979 226.062C79.8949 226.081 79.8915 226.102 79.8881 226.122C79.8534 226.338 79.8008 226.656 79.7305 227.066C79.5902 227.887 79.3788 229.076 79.0953 230.55C78.5292 233.497 77.675 237.582 76.5241 242.131C74.2207 251.237 70.7364 262.174 66.0071 269.582C61.2825 276.982 54.5779 282.124 49.0456 285.418C46.2804 287.064 43.8117 288.247 42.0346 289.018C41.146 289.403 40.4308 289.686 39.9384 289.872C39.6922 289.964 39.5015 290.033 39.3731 290.079C39.349 290.087 39.3274 290.095 39.3075 290.102C39.249 290.048 39.1663 289.971 39.0617 289.873C38.8375 289.664 38.513 289.36 38.1108 288.977C37.3066 288.21 36.1926 287.131 34.9549 285.877C32.4769 283.369 29.5108 280.176 27.5328 277.414C25.6595 274.799 23.6756 271.178 22.1574 268.205C21.3989 266.72 20.7582 265.398 20.307 264.448C20.0811 263.974 19.9031 263.591 19.7815 263.328C19.7392 263.237 19.7036 263.16 19.6752 263.098C19.7455 263.049 19.8383 262.985 19.9506 262.907C20.229 262.713 20.6294 262.434 21.1154 262.091C22.0875 261.405 23.4048 260.463 24.7837 259.44C26.1621 258.419 27.6044 257.315 28.8261 256.306C30.0417 255.302 31.057 254.377 31.5672 253.714C31.8337 253.368 32.179 252.667 32.5756 251.737C32.9757 250.799 33.4384 249.601 33.9371 248.239C34.9341 245.514 36.0786 242.124 37.1608 238.815C38.2435 235.505 39.2642 232.277 40.0142 229.875C40.3892 228.674 40.6969 227.68 40.9104 226.986C41.0172 226.639 41.1007 226.367 41.1575 226.182C41.1714 226.137 41.1833 226.097 41.1939 226.063Z" fill="#9854CB" stroke="#9854CB" stroke-width="0.853463" stroke-linecap="round" stroke-linejoin="round"/>
<path d="M38.3306 234.412L36.9387 239.435C36.9387 239.435 37.2336 239.225 40.3942 236.991C42.245 235.683 45.3302 235.213 45.3302 235.213L38.3306 234.412Z" fill="#330043"/>
<path d="M36.9384 239.435L36.715 239.373L36.5405 240.003L37.0731 239.624L36.9384 239.435ZM38.3303 234.413L38.3566 234.182C38.243 234.169 38.1371 234.24 38.1066 234.351L38.3303 234.413ZM45.3299 235.214L45.3647 235.443C45.4795 235.425 45.5638 235.325 45.5617 235.209C45.5596 235.093 45.4719 234.996 45.3562 234.983L45.3299 235.214ZM37.1621 239.497L38.5536 234.474L38.1066 234.351L36.715 239.373L37.1621 239.497ZM38.304 234.643L45.3036 235.444L45.3562 234.983L38.3566 234.182L38.304 234.643ZM45.3299 235.214C45.2952 234.984 45.2952 234.984 45.2947 234.984H45.2943C45.2939 234.984 45.293 234.985 45.2922 234.985C45.2905 234.985 45.288 234.986 45.285 234.986C45.2786 234.987 45.2693 234.988 45.2574 234.99C45.2337 234.994 45.1986 235 45.1536 235.008C45.0638 235.024 44.9341 235.047 44.7731 235.08C44.4507 235.145 44.0015 235.246 43.4935 235.388C42.4829 235.671 41.2185 236.124 40.26 236.802L40.5278 237.18C41.4206 236.549 42.6235 236.114 43.6185 235.835C44.1134 235.696 44.5511 235.598 44.8651 235.535C45.0219 235.503 45.1477 235.48 45.2337 235.465C45.2765 235.457 45.31 235.452 45.332 235.448C45.343 235.446 45.3515 235.445 45.357 235.444C45.3596 235.444 45.3617 235.443 45.363 235.443C45.3638 235.443 45.3642 235.443 45.3647 235.443C45.3647 235.443 45.3647 235.443 45.3299 235.214ZM40.26 236.802C38.6795 237.918 37.8159 238.529 37.3468 238.861C37.1125 239.027 36.9769 239.123 36.8998 239.178C36.8612 239.205 36.8375 239.222 36.8231 239.232C36.8159 239.237 36.8112 239.241 36.8083 239.243C36.8066 239.244 36.8057 239.244 36.8049 239.245C36.8044 239.245 36.8044 239.245 36.804 239.246C36.804 239.246 36.804 239.246 36.9384 239.435C37.0731 239.624 37.0731 239.624 37.0731 239.624C37.0731 239.623 37.0735 239.623 37.0739 239.623C37.0744 239.622 37.0752 239.622 37.0769 239.621C37.0799 239.619 37.0845 239.616 37.0913 239.611C37.1057 239.6 37.1295 239.583 37.168 239.556C37.2447 239.502 37.3803 239.406 37.6146 239.24C38.0837 238.908 38.9473 238.297 40.5278 237.18L40.26 236.802Z" fill="#330043"/>
<path d="M24.504 257.686C24.504 257.686 26.8655 265.364 34.243 274.289C41.6206 283.214 47.9431 287.709 47.9431 287.709" stroke="#DDC7F8" stroke-width="0.853463" stroke-linecap="round" stroke-linejoin="round"/>
<path d="M58.1893 232.729C58.1893 232.729 60.9393 245.211 55.2279 257.271C49.5164 269.33 34.0748 273.774 34.0748 273.774" stroke="#DDC7F8" stroke-width="0.853463" stroke-linecap="round" stroke-linejoin="round"/>
<path d="M62.3087 175.177C62.3087 175.177 64.4252 177.586 66.7519 176.851C68.9125 176.168 68.5172 175.177 68.5172 175.177C68.5172 175.177 80.8011 175.642 90.4075 187.214C100.671 199.577 105.127 222.857 105.127 222.857C105.127 222.857 87.7088 233.614 74.4481 236.03C60.91 238.496 35.9188 235.075 35.9188 235.075C35.9188 235.075 34.4726 205.346 43.9243 190.313C53.0417 175.813 62.3087 175.177 62.3087 175.177Z" fill="#FFCD34"/>
<path d="M133.905 175.616L134.063 175.637L134.064 175.637L134.068 175.638C134.071 175.638 134.077 175.639 134.085 175.64C134.099 175.642 134.122 175.644 134.152 175.647C134.211 175.654 134.299 175.662 134.412 175.671C134.636 175.688 134.957 175.705 135.339 175.705C136.107 175.706 137.114 175.639 138.091 175.373C139.069 175.106 139.998 174.644 140.633 173.87C141.264 173.103 141.629 172.001 141.432 170.401C141.355 169.772 141.095 169.32 140.855 169.026C140.735 168.879 140.62 168.771 140.536 168.701C140.494 168.666 140.461 168.641 140.438 168.625C140.427 168.617 140.419 168.611 140.414 168.608C140.411 168.606 140.41 168.605 140.409 168.604H140.408L140.148 168.442L133.905 175.616ZM133.905 175.616L133.83 175.756C133.829 175.756 133.829 175.757 133.828 175.758C133.826 175.761 133.824 175.766 133.819 175.773C133.811 175.787 133.798 175.808 133.779 175.837C133.741 175.894 133.68 175.98 133.593 176.087C133.419 176.302 133.139 176.603 132.721 176.941C131.886 177.614 130.497 178.432 128.296 178.973C126.106 179.512 123.982 179.352 122.401 179.054C121.612 178.905 120.96 178.723 120.507 178.578C120.28 178.505 120.103 178.442 119.984 178.398C119.961 178.389 119.941 178.382 119.923 178.374L118.626 170.366L119.286 163.787C119.288 163.782 119.29 163.777 119.292 163.77C119.3 163.744 119.312 163.706 119.329 163.656C119.362 163.556 119.41 163.411 119.473 163.232C119.597 162.875 119.777 162.382 119.997 161.841C120.442 160.752 121.04 159.499 121.672 158.754C122.423 157.87 123.118 157.25 123.9 156.774C124.682 156.298 125.561 155.959 126.685 155.652C128.769 155.082 131.118 155.115 132.779 156.384C133.29 156.774 133.548 157.323 133.677 157.788C133.741 158.019 133.772 158.225 133.787 158.373C133.795 158.447 133.798 158.506 133.8 158.545C133.8 158.565 133.801 158.58 133.801 158.589C133.801 158.595 133.801 158.598 133.801 158.6V158.601V158.602L133.797 158.938L134.113 158.822L134.115 158.821C134.116 158.821 134.118 158.82 134.121 158.819L134.126 158.817C134.132 158.815 134.14 158.812 134.149 158.809C134.174 158.8 134.211 158.787 134.259 158.772C134.355 158.74 134.494 158.695 134.666 158.646C135.012 158.548 135.486 158.43 136.006 158.351C136.527 158.272 137.086 158.235 137.603 158.292C138.121 158.35 138.577 158.5 138.913 158.782C139.608 159.364 139.697 160.011 139.621 160.518C139.582 160.776 139.5 161.001 139.426 161.161C139.39 161.241 139.356 161.304 139.331 161.346C139.319 161.367 139.31 161.383 139.303 161.393C139.3 161.398 139.298 161.402 139.296 161.404L139.295 161.406V161.406L139.025 161.806L139.506 161.766H139.507H139.509C139.512 161.766 139.516 161.766 139.522 161.765C139.533 161.765 139.551 161.764 139.574 161.763C139.621 161.762 139.689 161.761 139.773 161.764C139.941 161.77 140.168 161.791 140.408 161.85C140.892 161.968 141.383 162.228 141.59 162.784C141.831 163.431 141.943 163.898 141.942 164.414C141.942 164.937 141.826 165.527 141.584 166.422C141.457 166.89 141.161 167.342 140.885 167.685C140.748 167.855 140.62 167.993 140.526 168.089C140.479 168.138 140.441 168.175 140.415 168.2C140.402 168.212 140.392 168.221 140.385 168.228C140.382 168.231 140.38 168.233 140.378 168.234L140.377 168.236H140.377L133.905 175.616Z" fill="#F47155"/>
<path d="M133.905 175.616L134.063 175.637L134.064 175.637L134.068 175.638C134.071 175.638 134.077 175.639 134.085 175.64C134.099 175.642 134.122 175.644 134.152 175.647C134.211 175.654 134.299 175.662 134.412 175.671C134.636 175.688 134.957 175.705 135.339 175.705C136.107 175.706 137.114 175.639 138.091 175.373C139.069 175.106 139.998 174.644 140.633 173.87C141.264 173.103 141.629 172.001 141.432 170.401C141.355 169.772 141.095 169.32 140.855 169.026C140.735 168.879 140.62 168.771 140.536 168.701C140.494 168.666 140.461 168.641 140.438 168.625C140.427 168.617 140.419 168.611 140.414 168.608C140.411 168.606 140.41 168.605 140.409 168.604H140.408L140.148 168.442L133.905 175.616ZM133.905 175.616L133.83 175.756C133.829 175.756 133.829 175.757 133.828 175.758C133.826 175.761 133.824 175.766 133.819 175.773C133.811 175.787 133.798 175.808 133.779 175.837C133.741 175.894 133.68 175.98 133.593 176.087C133.419 176.302 133.139 176.603 132.721 176.941C131.886 177.614 130.497 178.432 128.296 178.973C126.106 179.512 123.982 179.352 122.401 179.054C121.612 178.905 120.96 178.723 120.507 178.578C120.28 178.505 120.103 178.442 119.984 178.398C119.961 178.389 119.941 178.382 119.923 178.374L118.626 170.366L119.286 163.787C119.288 163.782 119.29 163.777 119.292 163.77C119.3 163.744 119.312 163.706 119.329 163.656C119.362 163.556 119.41 163.411 119.473 163.232C119.597 162.875 119.777 162.382 119.997 161.841C120.442 160.752 121.04 159.499 121.672 158.754C122.423 157.87 123.118 157.25 123.9 156.774C124.682 156.298 125.561 155.959 126.685 155.652C128.769 155.082 131.118 155.115 132.779 156.384C133.29 156.774 133.548 157.323 133.677 157.788C133.741 158.019 133.772 158.225 133.787 158.373C133.795 158.447 133.798 158.506 133.8 158.545C133.8 158.565 133.801 158.58 133.801 158.589C133.801 158.595 133.801 158.598 133.801 158.6V158.601V158.602L133.797 158.938L134.113 158.822L134.115 158.821C134.116 158.821 134.118 158.82 134.121 158.819L134.126 158.817C134.132 158.815 134.14 158.812 134.149 158.809C134.174 158.8 134.211 158.787 134.259 158.772C134.355 158.74 134.494 158.695 134.666 158.646C135.012 158.548 135.486 158.43 136.006 158.351C136.527 158.272 137.086 158.235 137.603 158.292C138.121 158.35 138.577 158.5 138.913 158.782C139.608 159.364 139.697 160.011 139.621 160.518C139.582 160.776 139.5 161.001 139.426 161.161C139.39 161.241 139.356 161.304 139.331 161.346C139.319 161.367 139.31 161.383 139.303 161.393C139.3 161.398 139.298 161.402 139.296 161.404L139.295 161.406V161.406L139.025 161.806L139.506 161.766H139.507H139.509C139.512 161.766 139.516 161.766 139.522 161.765C139.533 161.765 139.551 161.764 139.574 161.763C139.621 161.762 139.689 161.761 139.773 161.764C139.941 161.77 140.168 161.791 140.408 161.85C140.892 161.968 141.383 162.228 141.59 162.784C141.831 163.431 141.943 163.898 141.942 164.414C141.942 164.937 141.826 165.527 141.584 166.422C141.457 166.89 141.161 167.342 140.885 167.685C140.748 167.855 140.62 167.993 140.526 168.089C140.479 168.138 140.441 168.175 140.415 168.2C140.402 168.212 140.392 168.221 140.385 168.228C140.382 168.231 140.38 168.233 140.378 168.234L140.377 168.236H140.377L133.905 175.616Z" stroke="#F47155" stroke-width="0.853463"/>
<path d="M68.5341 175.174L92.5041 202.058C92.5041 202.058 106.393 198.553 114.928 189.595C119.738 184.547 121.433 179.223 121.433 179.223L119.077 163.799C119.077 163.799 111.244 164.237 95.1028 168.175C82.1167 171.342 68.5341 175.174 68.5341 175.174Z" fill="#FFCD34"/>
<path d="M98.4942 200.655C98.4942 200.655 95.6175 194.482 92.7145 191.436" stroke="#330043" stroke-width="0.853463" stroke-linecap="round"/>
<path d="M126.409 151.351L122.348 153.241L124.538 157.949L128.599 156.059L126.409 151.351Z" fill="#9854CB"/>
<path d="M107.819 155.03C108.19 155.03 108.591 154.94 108.992 154.761C109.324 154.612 109.633 154.423 109.93 154.241C110.177 154.09 110.41 153.946 110.657 153.824L110.409 153.323C110.14 153.455 109.885 153.612 109.638 153.764C109.342 153.945 109.063 154.116 108.764 154.25C108.48 154.376 107.757 154.638 107.181 154.322C106.475 153.935 106.392 152.869 106.758 152.155C107.173 151.346 108.003 150.8 108.736 150.318L108.428 149.85C107.677 150.345 106.743 150.96 106.26 151.899C105.766 152.863 105.91 154.264 106.912 154.812C107.177 154.957 107.486 155.03 107.819 155.03Z" fill="#DDC7F8"/>
<path d="M154.977 146.904C154.977 146.904 154.42 147.05 152.895 147.14C152.701 147.151 152.491 147.162 152.263 147.173C152.08 147.181 151.882 147.188 151.676 147.192C149.856 147.237 147.153 147.195 143.259 146.904C143.259 146.904 138.399 146.144 132.16 149.211C130.538 150.007 128.546 151.125 126.396 152.216C126.206 152.318 126.019 152.415 125.832 152.504C123.428 153.708 120.853 154.845 118.404 155.447C118.169 155.503 117.937 155.555 117.705 155.6C117.605 155.623 117.508 155.641 117.406 155.66C114.128 156.277 111.149 155.783 109.19 153.016C106.633 149.409 107.205 146.362 109.355 143.468C109.463 143.318 109.575 143.165 109.699 143.016C109.755 142.94 109.814 142.866 109.877 142.791C111.594 140.723 114.05 138.72 116.681 136.626C116.857 136.484 117.033 136.342 117.212 136.204C117.627 135.871 118.038 135.542 118.46 135.206C125.735 129.37 127.331 126.468 127.783 125.003C128.164 123.747 129.727 116.407 131.966 114.03C132.067 113.925 132.164 113.832 132.265 113.746C132.362 113.667 132.459 113.596 132.556 113.532C132.766 113.402 132.983 113.323 133.199 113.297C138.903 112.598 147.183 123.305 149.299 126.637C149.299 126.637 159.508 144.029 154.977 146.904Z" fill="#9854CB"/>
<path d="M136.189 128.025C137.986 131.59 139.95 135.358 142.424 138.733C145.161 142.473 148.228 145.294 151.536 147.118C151.58 147.141 151.625 147.169 151.676 147.192C152.14 147.181 152.543 147.163 152.896 147.141C152.51 147.001 152.145 146.817 151.805 146.626C148.569 144.84 145.564 142.075 142.872 138.403C142.581 138.006 142.295 137.608 142.027 137.2L142.021 137.194C142.016 137.189 142.01 137.183 142.005 137.171C139.956 134.154 138.26 130.885 136.688 127.773C136.458 127.314 136.223 126.854 136.005 126.396C135.921 126.228 135.837 126.06 135.759 125.892C133.839 121.912 132.328 117.96 132.535 113.824C132.541 113.728 132.546 113.627 132.557 113.532C132.356 113.661 132.16 113.824 131.964 114.03C131.796 118.867 133.866 123.407 136.189 128.025Z" fill="#DDC7F8"/>
<path d="M142.339 137.75C143.136 136.781 143.961 135.78 144.456 134.577C145.475 132.107 144.779 129.012 142.801 127.217C140.825 125.42 137.677 125.024 135.316 126.276L135.579 126.77C137.738 125.626 140.616 125.989 142.425 127.631C144.234 129.273 144.871 132.105 143.939 134.364C143.475 135.489 142.678 136.457 141.907 137.393L142.339 137.75Z" fill="#DDC7F8"/>
<path d="M116.679 136.629C117.244 142.904 120.647 148.899 125.83 152.504C126.02 152.415 126.205 152.319 126.395 152.218C121.095 148.646 117.664 142.556 117.211 136.203C117.032 136.343 116.858 136.483 116.679 136.629Z" fill="#DDC7F8"/>
<path d="M109.353 143.469C109.706 148.093 112.252 152.493 116.198 155C116.617 155.269 117.02 155.493 117.406 155.661C117.736 155.599 118.067 155.527 118.403 155.448C117.815 155.274 117.188 154.967 116.5 154.531C112.588 152.04 110.053 147.432 109.879 142.792C109.689 143.016 109.515 143.245 109.353 143.469Z" fill="#DDC7F8"/>
<path d="M127.439 162.054H131.072L130.216 162.941L129.845 163.845L130.07 164.781L130.603 165.653L129.57 167.17L130.264 168.768L131.103 169.817L130.264 170.398L128.372 166.409L127.359 164.232L127.175 163.518L127.439 162.054Z" fill="#9854CB"/>
<path d="M139.138 161.695C139.138 161.695 138.132 163.486 135.755 164.929C133.864 166.076 130.561 167.1 129.931 164.371C129.583 162.863 131.393 161.958 131.393 161.958" stroke="#330043" stroke-width="0.853463" stroke-linecap="round" stroke-linejoin="round"/>
<path d="M140.391 168.245C140.391 168.245 138.39 170.106 137.026 170.463C135.347 170.902 130.743 170.333 129.885 168.245C129.143 166.44 130.743 165.763 130.743 165.763" stroke="#330043" stroke-width="0.853463" stroke-linecap="round" stroke-linejoin="round"/>
<path d="M133.848 158.859C133.848 158.859 133.848 160.242 132.534 161.394C131.011 162.728 127.436 161.938 127.436 161.938C127.436 161.938 127.281 163.981 126.527 165.055C125.816 166.067 125.094 166.567 125.094 166.567" stroke="#330043" stroke-width="0.853463" stroke-linecap="round" stroke-linejoin="round"/>
<path d="M134.118 175.671C134.118 175.671 130.777 175.395 129.839 172.819C128.9 170.244 131.428 169.717 131.428 169.717" stroke="#330043" stroke-width="0.853463" stroke-linecap="round" stroke-linejoin="round"/>
<path d="M35.9441 225.066L49.5094 204.143V236.413L35.9441 235.052V225.066Z" fill="#F4BD15"/>
<path d="M17.8092 235.879L21.1783 239.434L13.8443 246.386C12.863 247.317 11.313 247.275 10.3825 246.294C9.45237 245.312 9.4939 243.761 10.4753 242.831L17.8092 235.879Z" fill="#F47155"/>
<path d="M16.1633 234.414L21.749 235.941L14.2824 243.019C13.2599 243.988 11.6451 243.945 10.676 242.922C9.76331 241.959 9.74085 240.457 10.6243 239.468L13.2883 236.482L16.1633 234.414Z" fill="#F47155"/>
<path fill-rule="evenodd" clip-rule="evenodd" d="M25.9142 236.921L25.9154 236.918L18.6451 235.024L11.0815 246.83C10.506 247.728 10.6171 248.902 11.3505 249.676C12.412 250.796 14.2628 250.594 15.1349 249.321C16.8518 246.813 19.5298 243.39 21.3518 243.39C21.3989 243.39 21.4463 243.387 21.4938 243.379C21.8641 243.42 22.3374 243.68 22.0213 244.836C21.7451 245.846 21.4099 247.792 21.1718 249.286C20.9904 250.424 21.7294 251.498 22.8527 251.754C23.7447 251.958 24.6705 251.591 25.1404 250.806C26.0336 249.312 27.3972 246.802 27.7722 244.836C28.3248 241.94 27.7722 237.288 27.7722 237.288L25.9142 236.921Z" fill="#F47155"/>
<path d="M34.8405 184.292C23.4655 193.606 11.129 206.697 10.0654 216.74C9.00143 226.784 15.5642 235.208 15.5642 235.208L28.4596 238.211C38.7032 232.805 48.7122 209.471 48.7122 209.471L62.2228 175.187C62.2228 175.187 46.2151 174.979 34.8405 184.292Z" fill="#FFCD34"/>
<path d="M15.3539 241.246C15.3539 241.246 13.2556 243.227 12.4098 244.379C11.8081 245.199 11.1641 246.682 11.1641 246.682" stroke="black" stroke-width="0.853463" stroke-linecap="round"/>
<path d="M13.5792 239.283C13.5792 239.283 11.9712 240.735 11.1254 241.888C10.5237 242.707 9.87964 244.19 9.87964 244.19" stroke="black" stroke-width="0.853463" stroke-linecap="round"/>
<path d="M173.744 114.955C171.079 116.044 167.297 118.367 162.275 118.611" stroke="#330043" stroke-width="5.12906" stroke-linecap="round"/>
<path d="M171.958 98.6401C169.72 102.288 163.869 110.379 158.371 113.56" stroke="#330043" stroke-width="5.12906" stroke-linecap="round"/>
<path d="M153.958 110.432C154.628 108.067 156.322 102.95 157.733 101.4" stroke="#330043" stroke-width="5.12906" stroke-linecap="round"/>
<path d="M185.819 199.669C186.193 202.973 188.081 209.58 192.643 209.58" stroke="#330043" stroke-width="2.58051" stroke-linecap="round"/>
<path d="M185.819 216.78C185.445 213.165 183.557 205.934 178.994 205.934" stroke="#330043" stroke-width="2.58051" stroke-linecap="round"/>
<path d="M185.819 199.575C185.445 201.695 183.557 205.934 178.994 205.934" stroke="#330043" stroke-width="2.58051" stroke-linecap="round"/>
<path d="M185.819 216.78C186.193 214.411 188.081 209.674 192.643 209.674" stroke="#330043" stroke-width="2.58051" stroke-linecap="round"/>
</g>
<defs>
<clipPath id="clip0_737_5369">
<rect width="259.577" height="256.614" fill="white" transform="translate(-66.2108 78.8933)"/>
</clipPath>
</defs>
</svg>
