<svg width="400" height="390" viewBox="0 0 400 390" fill="none" xmlns="http://www.w3.org/2000/svg">
<path d="M177.886 3.76534C188.357 1.74966 195.25 3.59147 200.335 7.34429C205.551 11.1929 209.171 17.2602 212.613 24.3667C213.545 26.2917 214.468 28.3025 215.407 30.35C217.854 35.6812 220.413 41.2603 223.556 46.2176C227.974 53.1845 233.737 59.2827 242.453 62.4457C254.791 66.9231 266.546 64.322 277.128 61.9804C278.237 61.735 279.333 61.4925 280.415 61.2613C292.022 58.782 302.167 57.5158 312.007 65.396C321.681 73.1432 323.54 82.7211 324.294 93.8851C324.414 95.6509 324.504 97.4627 324.595 99.312C325.078 109.027 325.613 119.777 330.699 130.308C335.291 139.815 342.333 147.067 350.057 153.196C355.579 157.578 361.569 161.471 367.291 165.19C369.515 166.636 371.699 168.055 373.799 169.466C381.413 174.584 387.99 179.633 392.298 185.723C396.528 191.701 398.629 198.766 397.088 208.144C394.471 224.075 383.633 230.978 370.023 237.462C368.184 238.339 366.291 239.207 364.366 240.089C352.241 245.651 338.834 251.801 329.493 264.245C321.28 275.186 318.257 286.514 315.448 297.041C315.121 298.267 314.797 299.482 314.467 300.685C311.298 312.259 307.657 322.814 296.972 331.943C283.752 343.237 270.12 344.568 255.127 344.451C252.788 344.433 250.411 344.378 247.996 344.322C235.009 344.022 220.936 343.696 206.051 348.918C193.193 353.428 183.512 361.853 174.718 369.504C172.711 371.251 170.749 372.957 168.807 374.568C158.248 383.324 148.095 389.498 133.227 386.495C123.499 384.531 117.78 378.957 111.805 372.52C111.383 372.066 110.959 371.607 110.533 371.145C104.966 365.107 98.8863 358.513 89.0796 354.779C76.9601 350.163 65.4954 352.734 55.1504 355.055C54.2328 355.26 53.3241 355.464 52.4245 355.661C41.196 358.115 31.3002 359.527 21.4679 352.237C14.1086 346.78 10.8979 340.608 10.0217 333.829C9.12719 326.91 10.6411 319.185 13.1501 310.654C14.2756 306.827 15.5813 302.9 16.9286 298.847C17.0771 298.401 17.226 297.953 17.3753 297.503C18.8738 292.989 20.3995 288.334 21.7258 283.597C24.3765 274.129 26.2711 264.202 25.5737 254.113C24.4043 237.195 18.4765 223.066 13.0017 210.017C11.6647 206.83 10.3548 203.708 9.14783 200.625C2.96909 184.845 -0.726949 169.778 6.87531 150.983C14.2776 132.682 31.9749 127.757 52.5105 124.888C55.9664 124.405 59.5165 123.979 63.0887 123.55C69.9211 122.73 76.834 121.9 83.3221 120.645C93.2635 118.721 102.681 115.728 110.096 109.941C117.568 104.108 122.809 94.7889 127.178 84.3493C130.065 77.451 132.655 69.838 135.251 62.2083C136.577 58.3109 137.904 54.4091 139.273 50.5961C143.368 39.1922 147.881 28.435 153.992 20.0259C160.065 11.67 167.636 5.7386 177.886 3.76534Z" stroke="white" stroke-width="4.46343"/>
</svg>
