<svg width="206" height="160" viewBox="0 0 206 160" fill="none" xmlns="http://www.w3.org/2000/svg">
<path d="M39.652 33.1685C46.108 26.486 54.6832 27.5375 63.6635 29.7826C65.2084 30.1688 66.7667 30.5908 68.326 31.013C71.277 31.8121 74.2318 32.6122 77.1069 33.1731C81.5078 34.0316 85.7723 34.3419 89.6439 33.2329C93.5231 32.1218 97.1415 29.2548 100.68 25.6794C103.014 23.3207 105.331 20.6344 107.672 17.9194C108.878 16.5207 110.091 15.1144 111.316 13.7413C114.93 9.69196 118.66 5.91885 122.698 3.39561C126.73 0.876139 131.055 -0.38984 135.871 0.554366C140.71 1.50325 143.463 3.51879 145.075 6.14155C146.697 8.77919 147.187 12.0635 147.425 15.5978C147.492 16.5863 147.539 17.5953 147.586 18.6134C147.707 21.2145 147.83 23.8746 148.293 26.4018C148.94 29.9314 150.255 33.2454 153.171 35.8656C157.364 39.6318 162.451 40.4875 167.253 41.295C167.749 41.3785 168.242 41.4614 168.731 41.547C173.97 42.4645 178.718 43.681 181.663 48.9236C184.537 54.042 183.619 58.5899 182.046 63.3948C181.793 64.1688 181.522 64.95 181.248 65.7412C179.824 69.8495 178.306 74.2295 178.64 79.2796C178.942 83.8341 180.592 87.906 182.736 91.6845C184.273 94.3918 186.071 96.9619 187.813 99.4508C188.498 100.429 189.174 101.395 189.822 102.352C192.126 105.755 194.078 109.047 194.879 112.437C195.677 115.813 195.335 119.298 193.022 123.099C189.06 129.61 183.055 130.672 176.295 131.083C175.368 131.14 174.426 131.184 173.474 131.229C167.508 131.508 161.134 131.806 155.356 135.294C150.253 138.374 147.19 142.446 144.258 146.345C143.917 146.798 143.579 147.248 143.239 147.694C139.968 151.987 136.576 155.91 130.393 157.981C122.758 160.538 116.67 158.722 110.425 156.143C109.442 155.737 108.453 155.311 107.454 154.881C102.121 152.584 96.4832 150.156 89.5885 149.836C83.6631 149.561 78.4071 151.372 73.4876 153.068C72.349 153.46 71.2284 153.847 70.1217 154.199C64.2187 156.08 58.6867 157.027 52.7306 153.098C48.813 150.514 47.3061 147.043 45.9002 143.358C45.8031 143.103 45.7064 142.848 45.6095 142.591C44.3057 139.142 42.9472 135.549 39.6425 132.485C35.566 128.705 30.6054 127.885 25.9022 127.108C25.4953 127.041 25.0903 126.974 24.6879 126.905C19.6151 126.042 14.9569 124.933 11.9112 119.953C9.67092 116.291 9.33588 112.985 10.1612 109.822C10.9904 106.644 12.9955 103.593 15.4762 100.461C16.592 99.052 17.7994 97.6322 19.0347 96.1797C19.1714 96.019 19.3083 95.858 19.4456 95.6965C20.8223 94.0764 22.2234 92.4144 23.554 90.6885C26.2149 87.2372 28.6032 83.5187 29.9644 79.3385C32.2689 72.261 32.1804 65.5662 32.0969 59.2505C32.0762 57.6918 32.0559 56.1562 32.072 54.6436C32.1531 46.9936 33.1558 39.8926 39.652 33.1685Z" fill="white" stroke="white" stroke-width="0.483494"/>
<path d="M25.6683 77.8827C31.7046 59.3129 22.1038 43.3119 35.9569 28.948C49.8099 14.5841 72.7364 33.5737 88.8578 28.948C97.6116 26.4363 105.195 15.2631 113.605 6.22475M183.156 77.8827C182.322 65.2681 192.496 56.688 186.315 45.6653C179.972 34.3523 165.814 40.4597 156.179 31.7883C151.543 27.6164 150.795 21.7418 150.471 15.8544" stroke="white" stroke-width="0.483494"/>
<path d="M102.631 91.6277H111.201V97.1285H102.631V91.6277Z" fill="#F47155" stroke="#330043" stroke-width="0.483494"/>
<path d="M126.987 101.731H88.2259C88.3212 101.099 88.7909 100.459 89.6507 99.84C90.6145 99.1457 92.0247 98.5105 93.789 97.9729C97.3147 96.8987 102.2 96.2306 107.607 96.2306C113.013 96.2306 117.899 96.8987 121.424 97.9729C123.189 98.5105 124.599 99.1457 125.563 99.84C126.422 100.459 126.892 101.099 126.987 101.731Z" fill="#FFCD34" stroke="#330043" stroke-width="0.483494"/>
<path d="M80.2781 107.348C81.3633 104.081 84.2238 101.795 87.6357 101.243C92.8842 100.393 100.794 99.2994 106.71 99.2994C112.579 99.2994 120.414 100.376 125.662 101.223C129.14 101.784 132.039 104.143 133.092 107.491C134.171 110.925 135.292 115.347 135.292 118.89C135.292 122.422 134.178 126.828 133.102 130.256C132.046 133.622 129.123 135.988 125.625 136.537C120.376 137.36 112.564 138.404 106.71 138.404C100.809 138.404 92.9218 137.344 87.6727 136.518C84.24 135.978 81.357 133.686 80.2675 130.4C79.1256 126.957 77.927 122.482 77.927 118.89C77.927 115.287 79.133 110.796 80.2781 107.348Z" fill="#FF4A97" stroke="#330043" stroke-width="0.483494"/>
<path d="M105.435 114.188C106.068 113.503 107.151 113.503 107.784 114.188L108.711 115.191C108.897 115.392 109.12 115.555 109.369 115.669L110.609 116.241C111.456 116.631 111.791 117.661 111.335 118.475L110.668 119.666C110.534 119.905 110.448 120.168 110.416 120.44L110.256 121.796C110.146 122.722 109.27 123.359 108.355 123.177L107.016 122.91C106.748 122.857 106.471 122.857 106.203 122.91L104.864 123.177C103.949 123.359 103.072 122.722 102.963 121.796L102.803 120.44C102.77 120.168 102.685 119.905 102.551 119.666L101.884 118.475C101.428 117.661 101.763 116.631 102.61 116.241L103.85 115.669C104.099 115.555 104.322 115.392 104.508 115.191L105.435 114.188Z" fill="#FFCD34" stroke="#330043" stroke-width="0.483494"/>
<path d="M132.598 77.027H137.298C142.155 77.027 146.11 72.9198 146.11 67.8319C146.11 65.2325 145.784 63.3249 144.884 62.0671C143.999 60.8306 142.518 60.1714 140.06 60.1714C138.967 60.1714 137.746 60.4513 136.79 60.7367C136.313 60.8788 135.906 61.0209 135.619 61.1273C135.478 61.1795 135.366 61.2231 135.289 61.2538L132.598 77.027Z" fill="#F47155" stroke="#330043" stroke-width="0.483494"/>
<path d="M80.6975 77.027H75.9971C71.14 77.027 67.1857 72.9198 67.1857 67.8319C67.1857 65.2325 67.5108 63.3249 68.4111 62.0671C69.2962 60.8306 70.7777 60.1714 73.2351 60.1714C74.3284 60.1714 75.5488 60.4513 76.5056 60.7367C76.982 60.8788 77.3887 61.0209 77.6761 61.1273C77.817 61.1795 77.929 61.2231 78.0063 61.2538L80.6975 77.027Z" fill="#F47155" stroke="#330043" stroke-width="0.483494"/>
<path d="M77.9266 58.4306V58.4285C78.0229 58.4362 78.1443 58.4454 78.2889 58.4555C78.6912 58.4836 79.2729 58.5185 79.9922 58.5458C81.4306 58.6003 83.4206 58.6243 85.6274 58.5023C90.0271 58.259 95.3411 57.4331 98.842 55.0665C102.34 52.7017 105.087 48.0829 106.953 44.0949C107.888 42.0946 108.608 40.2409 109.094 38.8872C109.334 38.2178 109.517 37.6702 109.641 37.2874C109.776 37.5833 109.961 37.9819 110.19 38.4608C110.71 39.5443 111.458 41.0398 112.374 42.6879C114.202 45.9775 116.711 49.9007 119.412 52.3597C122.044 54.7552 126.063 56.8586 129.406 58.3589C131.081 59.1106 132.592 59.7137 133.685 60.129C134.232 60.3366 134.674 60.4973 134.98 60.6063C135.108 60.6522 135.213 60.6889 135.291 60.7161V60.7162V60.7195V60.7229V60.7264V60.7299V60.7334V60.737V60.7406V60.7442V60.7479V60.7516V60.7554V60.7592V60.763V60.7669V60.7708V60.7748V60.7788V60.7828V60.7869V60.7911V60.7952V60.7994V60.8037V60.808V60.8124V60.8167V60.8212V60.8256V60.8302V60.8347V60.8393V60.844V60.8487V60.8534V60.8582V60.863V60.8679V60.8728V60.8778V60.8828V60.8878V60.8929V60.8981V60.9033V60.9085V60.9138V60.9191V60.9245V60.9299V60.9354V60.9409V60.9465V60.9521V60.9578V60.9635V60.9693V60.9751V60.9809V60.9868V60.9928V60.9988V61.0048V61.0109V61.0171V61.0233V61.0295V61.0358V61.0422V61.0486V61.0551V61.0616V61.0681V61.0747V61.0814V61.0881V61.0949V61.1017V61.1085V61.1154V61.1224V61.1294V61.1365V61.1436V61.1508V61.1581V61.1653V61.1727V61.1801V61.1875V61.195V61.2026V61.2102V61.2179V61.2256V61.2334V61.2412V61.2491V61.257V61.265V61.2731V61.2812V61.2893V61.2976V61.3058V61.3142V61.3226V61.331V61.3395V61.3481V61.3567V61.3654V61.3741V61.3829V61.3918V61.4007V61.4097V61.4187V61.4278V61.4369V61.4461V61.4554V61.4647V61.4741V61.4835V61.4931V61.5026V61.5122V61.5219V61.5317V61.5415V61.5514V61.5613V61.5713V61.5813V61.5915V61.6016V61.6119V61.6222V61.6325V61.643V61.6535V61.664V61.6746V61.6853V61.6961V61.7069V61.7177V61.7287V61.7397V61.7507V61.7619V61.7731V61.7843V61.7957V61.8071V61.8185V61.83V61.8416V61.8533V61.865V61.8768V61.8886V61.9006V61.9125V61.9246V61.9367V61.9489V61.9612V61.9735V61.9859V61.9983V62.0109V62.0235V62.0361V62.0489V62.0617V62.0745V62.0875V62.1005V62.1136V62.1267V62.1399V62.1532V62.1666V62.18V62.1935V62.2071V62.2208V62.2345V62.2483V62.2621V62.276V62.2901V62.3041V62.3183V62.3325V62.3468V62.3612V62.3756V62.3901V62.4047V62.4193V62.4341V62.4489V62.4638V62.4787V62.4937V62.5088V62.524V62.5393V62.5546V62.57V62.5855V62.601V62.6167V62.6324V62.6482V62.664V62.6799V62.696V62.712V62.7282V62.7444V62.7608V62.7772V62.7936V62.8102V62.8268V62.8435V62.8603V62.8772V62.8941V62.9111V62.9282V62.9454V62.9627V62.98V62.9974V63.0149V63.0325V63.0502V63.0679V63.0857V63.1036V63.1216V63.1397V63.1578V63.1761V63.1944V63.2128V63.2312V63.2498V63.2684V63.2871V63.3059V63.3248V63.3438V63.3628V63.382V63.4012V63.4205V63.4399V63.4593V63.4789V63.4985V63.5182V63.538V63.5579V63.5779V63.598V63.6181V63.6384V63.6587V63.6791V63.6996V63.7201V63.7408V63.7616V63.7824V63.8033V63.8243V63.8454V63.8666V63.8879V63.9093V63.9307V63.9522V63.9739V63.9956V64.0174V64.0393V64.0613V64.0833V64.1055V64.1277V64.1501V64.1725V64.195V64.2176V64.2403V64.2631V64.286V64.309V64.332V64.3552V64.3784V64.4018V64.4252V64.4487V64.4723V64.496V64.5198V64.5437V64.5677V64.5918V64.616V64.6402V64.6646V64.689V64.7136V64.7382V64.763V64.7878V64.8127V64.8377V64.8628V64.888V64.9133V64.9387V64.9642V64.9898V65.0155V65.0413V65.0672V65.0931V65.1192V65.1454V65.1717V65.198V65.2245V65.251V65.2777V65.3044V65.3313V65.3582V65.3853V65.4124V65.4397V65.467V65.4945V65.522V65.5496V65.5774V65.6052V65.6332V65.6612V65.6894V65.7176V65.7459V65.7744V65.8029V65.8316V65.8603V65.8892V65.9181V65.9472V65.9763V66.0056V66.0349V66.0644V66.094V66.1236V66.1534V66.1833V66.2132V66.2433V66.2735V66.3038V66.3342V66.3647V66.3953V66.426V66.4568V66.4877V66.5187V66.5499V66.5811V66.6124V66.6439V66.6754V66.7071V66.7388V66.7707V66.8027V66.8348C135.291 80.8269 122.478 92.218 106.609 92.218C90.7398 92.218 77.9266 80.8269 77.9266 66.8348V66.8027V66.7706V66.7386V66.7066V66.6748V66.6429V66.6111V66.5794V66.5477V66.5161V66.4845V66.4529V66.4215V66.3901V66.3587V66.3274V66.2961V66.2649V66.2337V66.2026V66.1716V66.1406V66.1097V66.0788V66.0479V66.0172V65.9864V65.9558V65.9251V65.8946V65.8641V65.8336V65.8032V65.7729V65.7426V65.7123V65.6821V65.652V65.6219V65.5919V65.5619V65.532V65.5021V65.4723V65.4426V65.4129V65.3832V65.3536V65.3241V65.2946V65.2652V65.2358V65.2065V65.1772V65.148V65.1189V65.0898V65.0607V65.0317V65.0028V64.9739V64.9451V64.9163V64.8876V64.859V64.8304V64.8018V64.7733V64.7449V64.7165V64.6882V64.6599V64.6317V64.6035V64.5754V64.5474V64.5194V64.4915V64.4636V64.4357V64.408V64.3803V64.3526V64.325V64.2975V64.27V64.2425V64.2151V64.1878V64.1606V64.1333V64.1062V64.0791V64.0521V64.0251V63.9981V63.9713V63.9445V63.9177V63.891V63.8643V63.8378V63.8112V63.7847V63.7583V63.732V63.7057V63.6794V63.6532V63.6271V63.601V63.575V63.549V63.5231V63.4973V63.4715V63.4457V63.4201V63.3944V63.3689V63.3434V63.3179V63.2925V63.2672V63.2419V63.2167V63.1915V63.1664V63.1414V63.1164V63.0915V63.0666V63.0418V63.017V62.9923V62.9677V62.9431V62.9186V62.8941V62.8697V62.8454V62.8211V62.7968V62.7726V62.7485V62.7245V62.7005V62.6765V62.6526V62.6288V62.6051V62.5813V62.5577V62.5341V62.5106V62.4871V62.4637V62.4403V62.417V62.3938V62.3706V62.3475V62.3244V62.3014V62.2785V62.2556V62.2328V62.21V62.1873V62.1647V62.1421V62.1196V62.0971V62.0747V62.0523V62.03V62.0078V61.9856V61.9635V61.9415V61.9195V61.8976V61.8757V61.8539V61.8321V61.8104V61.7888V61.7672V61.7457V61.7243V61.7029V61.6815V61.6603V61.6391V61.6179V61.5968V61.5758V61.5548V61.5339V61.5131V61.4923V61.4716V61.4509V61.4303V61.4097V61.3893V61.3688V61.3485V61.3282V61.3079V61.2877V61.2676V61.2476V61.2276V61.2076V61.1878V61.1679V61.1482V61.1285V61.1089V61.0893V61.0698V61.0504V61.031V61.0116V60.9924V60.9732V60.954V60.935V60.916V60.897V60.8781V60.8593V60.8405V60.8218V60.8032V60.7846V60.7661V60.7476V60.7292V60.7109V60.6926V60.6744V60.6562V60.6382V60.6201V60.6022V60.5843V60.5665V60.5487V60.531V60.5133V60.4957V60.4782V60.4608V60.4434V60.426V60.4088V60.3915V60.3744V60.3573V60.3403V60.3233V60.3064V60.2896V60.2729V60.2561V60.2395V60.2229V60.2064V60.19V60.1736V60.1573V60.141V60.1248V60.1087V60.0926V60.0766V60.0606V60.0448V60.0289V60.0132V59.9975V59.9819V59.9663V59.9508V59.9354V59.92V59.9047V59.8895V59.8743V59.8592V59.8441V59.8292V59.8142V59.7994V59.7846V59.7699V59.7552V59.7406V59.7261V59.7116V59.6972V59.6829V59.6686V59.6544V59.6402V59.6261V59.6121V59.5982V59.5843V59.5705V59.5567V59.543V59.5294V59.5158V59.5023V59.4889V59.4756V59.4623V59.449V59.4358V59.4227V59.4097V59.3967V59.3838V59.371V59.3582V59.3455V59.3328V59.3203V59.3078V59.2953V59.2829V59.2706V59.2584V59.2462V59.2341V59.222V59.21V59.1981V59.1862V59.1745V59.1627V59.1511V59.1395V59.128V59.1165V59.1051V59.0938V59.0825V59.0713V59.0602V59.0492V59.0382V59.0273V59.0164V59.0056V58.9949V58.9842V58.9736V58.9631V58.9527V58.9423V58.9319V58.9217V58.9115V58.9014V58.8913V58.8813V58.8714V58.8616V58.8518V58.8421V58.8324V58.8228V58.8133V58.8039V58.7945V58.7852V58.7759V58.7668V58.7576V58.7486V58.7396V58.7307V58.7219V58.7131V58.7044V58.6958V58.6872V58.6787V58.6703V58.6619V58.6536V58.6454V58.6373V58.6292V58.6212V58.6132V58.6053V58.5975V58.5898V58.5821V58.5745V58.5669V58.5595V58.5521V58.5447V58.5375V58.5303V58.5231V58.5161V58.5091V58.5022V58.4953V58.4885V58.4818V58.4752V58.4686V58.4621V58.4557V58.4493V58.443V58.4368V58.4306Z" fill="#F47155" stroke="#330043" stroke-width="0.483494"/>
<circle cx="92.5661" cy="63.6122" r="0.920659" fill="#330043"/>
<circle cx="115.276" cy="63.6122" r="0.920659" fill="#330043"/>
<circle cx="8.55577" cy="84.4038" r="7.81402" fill="white" stroke="white" stroke-width="0.483494"/>
<circle cx="86.6587" cy="10.2908" r="7.81402" fill="white" stroke="white" stroke-width="0.483494"/>
<circle cx="197.444" cy="69.9801" r="7.81402" fill="white" stroke="white" stroke-width="0.483494"/>
<path d="M76.9729 73.3155C76.9729 73.3155 78.1857 79.3158 78.013 82.0674C77.7397 86.4231 75.9411 89.8552 73.9958 89.7331C72.0505 89.611 70.6951 85.981 70.9685 81.6253C71.0869 79.738 72.0706 76.6977 72.0706 76.6977" stroke="#FFCD34" stroke-width="0.483494" stroke-linecap="round"/>
<path d="M136.042 73.3155C136.042 73.3155 134.829 79.3158 135.002 82.0674C135.276 86.4231 137.074 89.8552 139.019 89.7331C140.965 89.611 142.32 85.981 142.047 81.6253C141.928 79.738 140.945 76.6977 140.945 76.6977" stroke="#FFCD34" stroke-width="0.483494" stroke-linecap="round"/>
<path d="M97.9396 76.2717C97.9396 76.2717 102.942 79.8776 106.609 79.8776C110.276 79.8776 115.279 76.2717 115.279 76.2717" stroke="#330043" stroke-width="0.483494" stroke-linecap="round"/>
<path d="M105.612 61.3109C105.612 61.3109 105.32 63.7157 104.768 65.1469C104.276 66.4232 103.08 68.2158 103.08 68.2158" stroke="#330043" stroke-width="0.483494" stroke-linecap="round"/>
</svg>
